<?xml version="1.0" encoding="UTF-8"?>
<svg version="1.1" xmlns="http://www.w3.org/2000/svg" width="4385" height="703">
<path d="M0 0 C0.77575241 -0.00115384 1.55150481 -0.00230769 2.35076487 -0.0034965 C4.94151949 -0.00613634 7.53221155 -0.0016628 10.12296295 0.00279331 C12.00252691 0.00235707 13.8820908 0.00148119 15.76165438 0.00020415 C20.91990187 -0.00203043 26.07812858 0.00196631 31.23637342 0.00698221 C36.80138364 0.01130138 42.36639269 0.00983924 47.93140411 0.00907993 C57.57097908 0.00855563 67.21054728 0.01169267 76.85012054 0.01731777 C90.78731975 0.02544543 104.72451568 0.02804929 118.661717 0.02930576 C141.27400446 0.03149429 163.88628801 0.03814039 186.4985733 0.04760838 C208.4640679 0.05679492 230.42956154 0.0638775 252.39505768 0.06811619 C253.07230685 0.06824771 253.74955603 0.06837924 254.4473279 0.06851475 C261.2486345 0.06983329 268.04994111 0.0711091 274.85124773 0.07235361 C331.87594472 0.08279206 388.90063773 0.10043593 445.92533112 0.12304783 C444.26906373 4.4886044 442.04913438 8.07837545 439.36283112 11.87304783 C438.36588416 13.3021405 437.36985268 14.73187209 436.37454987 16.16211033 C435.82589264 16.94876072 435.27723541 17.73541111 434.71195221 18.54589939 C431.33118995 23.42254963 428.00727325 28.33797571 424.67533112 33.24804783 C423.2015301 35.41742555 421.72757127 37.58669606 420.25345612 39.75586033 C419.5270694 40.82481541 418.80068268 41.89377048 418.05228424 42.99511814 C414.84788468 47.70755698 411.63691294 52.4155021 408.42533112 57.12304783 C400.24584962 69.11433707 392.08533419 81.11849867 383.92533112 93.12304783 C378.96003399 100.42772074 373.994 107.73189035 369.02591705 115.03466892 C367.59648422 117.1362874 366.1674635 119.23818622 364.73880768 121.34033298 C362.63532957 124.43526237 360.53048024 127.52925491 358.42533112 130.62304783 C357.46312653 132.0397678 357.46312653 132.0397678 356.48148346 133.48510838 C355.6029068 134.77541965 355.6029068 134.77541965 354.70658112 136.09179783 C354.19160065 136.84912205 353.67662018 137.60644627 353.14603424 138.3867197 C351.92533112 140.12304783 351.92533112 140.12304783 350.92533112 141.12304783 C349.45559371 141.22118279 347.98115033 141.24967572 346.50814056 141.25053978 C345.54824943 141.25354743 344.58835829 141.25655508 343.59937954 141.25965387 C342.53220479 141.25790349 341.46503004 141.25615312 340.36551666 141.25434971 C339.2414293 141.25646542 338.11734194 141.25858114 336.95919132 141.26076096 C333.16013461 141.26679323 329.36111081 141.2657585 325.56204987 141.26489353 C322.85060208 141.2673494 320.1391573 141.27136946 317.42771149 141.2754221 C311.57005572 141.28354962 305.71240433 141.28848423 299.85474396 141.29171276 C290.58341387 141.29720755 281.31212064 141.31410626 272.04080963 141.33305454 C268.86824805 141.33941229 265.69568637 141.3457207 262.52312469 141.35203171 C261.73007626 141.35361547 260.93702782 141.35519923 260.11994761 141.35683099 C251.0830729 141.37478387 242.04619556 141.39099889 233.00931549 141.40600681 C232.18294936 141.40738268 231.35658324 141.40875856 230.50517571 141.41017612 C217.15041547 141.4320481 203.79566469 141.44284723 190.44088972 141.45037756 C176.71899311 141.45847116 162.99717722 141.48183958 149.27532673 141.51833123 C140.82017969 141.54027535 132.36519905 141.55004575 123.910025 141.54383089 C118.10000153 141.54063686 112.29011917 141.5521135 106.48013937 141.57472531 C103.1361615 141.58729546 99.79275824 141.59146784 96.44873047 141.58230877 C76.95676732 141.53434415 60.47105786 142.82088461 42.92533112 152.12304783 C41.93146393 152.62449314 40.93759674 153.12593845 39.91361237 153.64257908 C20.05234126 164.31314434 6.26261731 183.22421102 -1.01216888 204.31054783 C-5.0416589 218.76930613 -5.26457095 235.67952087 1.92533112 249.12304783 C11.02183427 264.57614354 28.81543347 271.308636 45.33841705 275.77539158 C60.6725392 279.60735677 76.14688237 281.07435298 91.90579987 281.65039158 C93.06947586 281.69318241 94.23315186 281.73597324 95.43209076 281.78006077 C104.72727681 282.09703992 114.02035855 282.24710501 123.31986237 282.33398533 C124.02070513 282.34053953 124.72154789 282.34709373 125.44362831 282.35384655 C128.32386544 282.38047176 131.20410573 282.40674091 134.08434772 282.43283463 C160.76723525 282.68080985 187.39836008 282.94012297 213.92533112 286.12304783 C215.00611938 286.25226627 215.00611938 286.25226627 216.10874176 286.38409519 C263.85845836 292.17728335 315.11718961 303.61626324 352.92533112 335.12304783 C353.75000885 335.80318943 353.75000885 335.80318943 354.59134674 336.49707127 C382.56597833 359.87757838 396.01586904 395.42358896 399.61624908 430.97216892 C401.57687485 454.85529956 400.71155695 479.48149598 396.92533112 503.12304783 C396.67589752 504.70666111 396.67589752 504.70666111 396.42142487 506.32226658 C390.0125647 545.67741528 376.88502965 586.74142519 352.92533112 619.12304783 C352.00332111 620.4028985 351.08145746 621.68285461 350.15970612 622.96289158 C343.91176039 631.54708753 337.30133303 639.48585604 329.92533112 647.12304783 C329.00572918 648.10581103 328.08646175 649.08888733 327.16751862 650.07226658 C299.11212513 679.60146217 257.54988907 701.05959755 216.47006345 702.30567288 C211.28184674 702.39888145 206.09402311 702.38048492 200.90522003 702.36355686 C198.90085813 702.36443036 196.89649645 702.366184 194.89213598 702.36873519 C189.4167771 702.37318433 183.9414972 702.36523869 178.46614838 702.35517907 C172.54950219 702.34651161 166.63286016 702.34946706 160.71620941 702.35098362 C149.81006513 702.35209846 138.90394941 702.34434584 127.99781233 702.33230186 C117.92958749 702.32127821 107.8613711 702.31483743 97.79314041 702.31280231 C97.12449727 702.31266484 96.45585413 702.31252736 95.76694908 702.31238571 C92.37093282 702.311709 88.97491654 702.31110625 85.57890026 702.31053196 C61.55569841 702.30633663 37.53250986 702.29287729 13.50931549 702.27392673 C-9.82173848 702.25554348 -33.1527888 702.24138331 -56.48384857 702.23291111 C-57.56353003 702.23251653 -57.56353003 702.23251653 -58.66502324 702.23211398 C-65.8937507 702.22947683 -73.12247818 702.22692522 -80.35120569 702.22443626 C-95.07556544 702.21936451 -109.79992496 702.213722 -124.52428436 702.20773411 C-125.539678 702.20732224 -125.539678 702.20732224 -126.57558464 702.20690205 C-171.74195165 702.18851601 -216.90831101 702.15678567 -262.07466888 702.12304783 C-260.95181731 700.35504251 -259.82851023 698.58732647 -258.70500946 696.81973362 C-257.76676991 695.34309207 -257.76676991 695.34309207 -256.80957603 693.83661938 C-255.00497173 691.01403438 -253.15952077 688.22540838 -251.26998138 685.45898533 C-250.61320404 684.49541111 -249.9564267 683.53183689 -249.27974701 682.53906345 C-248.25010834 681.03376072 -248.25010834 681.03376072 -247.19966888 679.49804783 C-246.07609864 677.85060435 -244.95253111 676.20315901 -243.82912445 674.55560398 C-242.67352469 672.86126677 -241.51721432 671.16741626 -240.3608017 669.47363377 C-236.75798042 664.19517043 -233.167065 658.90860881 -229.57466888 653.62304783 C-228.16065537 651.54358743 -226.74659274 649.46416044 -225.33248138 647.38476658 C-222.47273217 643.1792917 -219.61339912 638.97353428 -216.75435638 634.76757908 C-209.43070981 623.99438882 -202.10249165 613.22437258 -194.76021576 602.46386814 C-191.34642226 597.4595159 -187.93804162 592.45153518 -184.53560638 587.43945408 C-183.76412643 586.30338337 -182.99264207 585.16731565 -182.22115326 584.03125095 C-180.74496918 581.85739454 -179.2698779 579.6828099 -177.79537201 577.50781345 C-176.78506927 576.01991306 -176.78506927 576.01991306 -175.75435638 574.50195408 C-174.86852875 573.19593235 -174.86852875 573.19593235 -173.9648056 571.86352634 C-173.34106049 570.95916843 -172.71731537 570.05481052 -172.07466888 569.12304783 C-171.79868343 568.53954748 -171.52269797 567.95604713 -171.23834932 567.35486495 C-170.05452835 565.1577683 -168.99620259 563.73203041 -167.07466888 562.12304783 C-162.90268853 561.052748 -158.78888542 561.18928531 -154.50182343 561.25003147 C-153.20956514 561.24067251 -151.91730685 561.23131355 -150.58588922 561.22167099 C-146.99998027 561.19662275 -143.41541239 561.21513544 -139.82955575 561.24070454 C-135.96149678 561.26065398 -132.09362789 561.24022592 -128.22557831 561.22465611 C-121.52098111 561.20315971 -114.81678698 561.20715771 -108.11219406 561.22830677 C-98.40221845 561.25880787 -88.69259338 561.2497246 -78.98260288 561.23086081 C-63.20741549 561.20119681 -47.43238464 561.20202359 -31.65718842 561.2226572 C-16.37005649 561.24257381 -1.08300386 561.25077735 14.20413971 561.24121189 C15.14420964 561.24062936 16.08427957 561.24004684 17.05283646 561.23944665 C26.41175185 561.23342119 35.77066559 561.22556598 45.12957936 561.21744547 C48.77836754 561.21429751 52.4271558 561.21124362 56.07594411 561.20825137 C57.87754214 561.20677091 59.67914014 561.20526016 61.48073812 561.20371865 C72.91272225 561.19417098 84.34465377 561.19411062 95.77663684 561.20480752 C101.5585472 561.21019012 107.34045747 561.21239778 113.12237005 561.21378703 C117.67674989 561.21516802 122.23109703 561.2207403 126.78546783 561.22974236 C130.21786246 561.23521933 133.65025037 561.23415975 137.08264923 561.23416233 C138.27286757 561.23795906 139.46308591 561.24175579 140.68937147 561.24566758 C162.32917511 561.22358811 184.07200307 559.57884137 200.55033112 543.78711033 C216.22412582 526.20564983 225.40372772 500.73746816 225.14017487 477.31054783 C224.53961321 468.40039672 221.89817821 460.5178291 216.92533112 453.12304783 C216.33171783 452.21812595 216.33171783 452.21812595 215.72611237 451.29492283 C204.14821341 435.85772422 178.72598404 430.01469291 160.78911591 427.30655003 C145.51461275 425.18501738 130.48191177 424.66683273 115.07767487 424.64648533 C112.56306406 424.63210793 110.04846088 424.61633945 107.53386688 424.59927464 C100.97178425 424.55786052 94.40974879 424.53259995 87.84757233 424.51178074 C76.13252779 424.47140631 64.41759092 424.40113484 52.70267487 424.33398533 C51.45858101 424.3271932 50.21448715 424.32040108 48.93269348 424.31340313 C34.8256971 424.23409449 20.72513303 424.12569526 6.62454987 423.67382908 C4.92285896 423.61943165 4.92285896 423.61943165 3.18679047 423.56393528 C-33.85885098 422.17036995 -73.56067319 415.91371609 -106.07466888 397.12304783 C-106.73466888 396.75099216 -107.39466888 396.3789365 -108.07466888 395.99560642 C-117.66689856 390.53866326 -125.8173036 384.31653125 -133.63570404 376.53857517 C-134.95480526 375.24095914 -136.31571197 373.98620027 -137.68013763 372.73632908 C-149.79559775 361.39132747 -158.35207223 347.16775551 -165.07466888 332.12304783 C-165.60576263 330.97062595 -166.13685638 329.81820408 -166.68404388 328.63086033 C-192.94076827 267.8614312 -180.57087967 190.72734025 -157.07466888 131.12304783 C-140.76625547 91.54025709 -115.8425806 52.81674968 -80.07466888 28.12304783 C-79.25651703 27.55432957 -79.25651703 27.55432957 -78.42183685 26.97412205 C-55.46544043 11.16059746 -28.21009321 -0.10476793 0 0 Z " fill="#FFFFFF" transform="translate(1027.0746688842773,0.8769521713256836)"/>
<path d="M0 0 C54.37092592 -0.06876157 108.74184742 -0.12157717 163.11280832 -0.15319599 C169.54102593 -0.15694782 175.96924345 -0.16083082 182.39746094 -0.16479492 C183.67712984 -0.16558185 184.95679874 -0.16636878 186.27524549 -0.16717956 C206.95839646 -0.18021096 227.64152226 -0.20385226 248.32465833 -0.23145839 C269.56900579 -0.25957576 290.81334011 -0.27618961 312.0577054 -0.28226548 C325.15218276 -0.28636882 338.24658894 -0.29929904 351.34104437 -0.3237494 C360.33702976 -0.33968485 369.3329787 -0.3443828 378.32897717 -0.34050413 C383.50858066 -0.33859467 388.68806033 -0.34138955 393.86764145 -0.35761642 C439.06622692 -0.49200438 486.75369601 3.08380411 525 30 C525.95003906 30.66515625 526.90007813 31.3303125 527.87890625 32.015625 C555.79153102 52.24954856 574.37436037 80.4278821 585 113 C585.23702637 113.7223584 585.47405273 114.4447168 585.71826172 115.18896484 C589.977589 128.48378156 592.19465118 142.17970311 594 156 C594.10602539 156.80864502 594.21205078 157.61729004 594.32128906 158.45043945 C595.41307259 168.35377695 595.24395913 178.36215821 595.25 188.3125 C595.25101212 189.8108992 595.25101212 189.8108992 595.25204468 191.33956909 C595.23379888 208.40825677 594.4581434 225.08574751 592 242 C591.75056641 243.72645752 591.75056641 243.72645752 591.49609375 245.48779297 C582.55173211 304.99264333 558.74200219 365.01090932 516.75 409.09765625 C514.34373711 411.63722064 512.03573203 414.22765802 509.75 416.875 C506.81160567 420.19118789 503.74997752 423.15378108 500.36328125 426.0078125 C498.54337564 427.5419478 496.75745061 429.09708884 494.98046875 430.6796875 C427.9596467 489.96054635 345.50629394 498.96678248 259.98758459 499.30332303 C254.59181561 499.3255022 249.19607191 499.3527315 243.80032349 499.37937927 C233.62619593 499.42888193 223.45205402 499.47397433 213.27789891 499.51740164 C201.67653257 499.56714162 190.07519164 499.62192089 178.47385001 499.67708123 C154.64925714 499.79024816 130.82463981 499.89722397 107 500 C106.86692475 501.0106763 106.73384951 502.0213526 106.59674168 503.06265545 C103.36040781 527.6412849 100.1221522 552.21966058 96.88187504 576.7977705 C95.3149544 588.68350163 93.74866099 600.56931479 92.18383789 612.45532227 C90.8201249 622.8137351 89.45524144 633.17199291 88.08894533 643.53006536 C87.3653772 649.01584826 86.64240011 654.5017076 85.92082405 659.98775291 C85.24184199 665.14981887 84.56129686 670.31167634 83.87954521 675.47337723 C83.62943147 677.36917957 83.37989203 679.26505778 83.13096619 681.16101646 C82.79129255 683.74749925 82.44956271 686.33370232 82.10731506 688.91984558 C82.00906325 689.67179819 81.91081143 690.4237508 81.80958229 691.19848984 C81.32526166 694.84130301 80.72177048 698.39114762 80 702 C22.58 702 -34.84 702 -94 702 C-93.38638748 692.79581227 -92.72281669 683.83369883 -91.47418213 674.73254395 C-91.32137443 673.58851986 -91.16856672 672.44449577 -91.01112849 671.26580429 C-90.50205132 667.46366112 -89.98589422 663.66251468 -89.46972656 659.86132812 C-89.0973531 657.09558891 -88.72649713 654.32964669 -88.35557079 651.56371307 C-87.55045718 645.56612135 -86.74167807 639.56903305 -85.93044853 633.57226562 C-84.72411662 624.65462429 -83.52364247 615.73620115 -82.32437035 606.817608 C-80.30593787 591.80830326 -78.28298918 576.79961057 -76.25747681 561.79125977 C-73.363212 540.34541016 -70.47526613 518.89871258 -67.58865793 497.45183122 C-66.42930336 488.83827108 -65.26975142 480.22473751 -64.11018372 471.61120605 C-63.91696653 470.17592472 -63.91696653 470.17592472 -63.71984597 468.71164781 C-61.73470053 453.96555369 -59.74842525 439.21961203 -57.76152039 424.47375488 C-50.18375134 368.23421106 -42.61988305 311.99281155 -35.06640625 255.75 C-34.80325925 253.79064748 -34.54011206 251.83129499 -34.27696466 249.87194252 C-31.95717873 232.59910556 -29.63756481 215.3262455 -27.31819725 198.05335236 C-23.96502156 173.08148818 -20.61102271 148.1097347 -17.25632019 123.13807559 C-16.66623292 118.74558035 -16.07615843 114.35308339 -15.48608303 109.96058655 C-14.57933212 103.21078452 -13.67257927 96.46098275 -12.76582146 89.71118164 C-12.65688151 88.90024506 -12.54794156 88.08930848 -12.43570041 87.25379807 C-11.78787491 82.43147104 -11.14003679 77.6091457 -10.49219101 72.7868214 C-9.48581559 65.29572784 -8.47948544 57.80462822 -7.47324949 50.31351593 C-7.02031953 46.94160502 -6.56735748 43.56969843 -6.11434412 40.19779873 C-5.78114046 37.71766179 -5.44801457 35.2375144 -5.11497653 32.75735521 C-4.80937742 30.48288164 -4.50334971 28.2084656 -4.19683015 25.93411589 C-3.574767 21.31362599 -2.95695342 16.69292058 -2.36667442 12.06825256 C-2.27466812 11.35378731 -2.18266181 10.63932206 -2.08786744 9.90320635 C-1.85798751 8.1100018 -1.63228566 6.31626287 -1.40705395 4.52246857 C-1 2 -1 2 0 0 Z M155 141 C153.60047224 146.90913607 152.51560301 152.7794349 151.73446655 158.80000305 C151.62250179 159.63791529 151.51053703 160.47582754 151.39517939 161.33913106 C151.0244992 164.12053994 150.65945643 166.90265792 150.29443359 169.68481445 C150.02846541 171.6895228 149.76215493 173.69418576 149.49552917 175.69880676 C148.77506716 181.1235093 148.05957244 186.54885629 147.34512663 191.97435403 C146.5962882 197.65561822 145.84334248 203.33633819 145.0909729 209.01713562 C143.8290502 218.55020485 142.57028557 228.08368697 141.31347656 237.61743164 C139.85980899 248.6442364 138.40148413 259.67041745 136.94060075 270.69626838 C135.53495879 281.30579121 134.13226482 291.91570166 132.73103714 302.52580833 C132.13465214 307.04139243 131.5372903 311.55684572 130.93915939 316.07219887 C130.23578477 321.38325564 129.53500647 326.69464867 128.83625221 332.00631523 C128.57914643 333.95756907 128.3211536 335.90870625 128.06221962 337.85971832 C127.70959622 340.51780701 127.36016575 343.17629623 127.01156616 345.83491516 C126.9078748 346.61087817 126.80418343 347.38684118 126.69734991 348.18631822 C126.26559009 351.50308108 126 354.64704007 126 358 C150.55788343 358.04687163 175.11576008 358.08206278 199.67367935 358.10362434 C211.07820386 358.11390508 222.48270045 358.12790365 233.88720703 358.15087891 C243.83578345 358.1709114 253.78433964 358.18373967 263.73293567 358.18817699 C268.99297515 358.19076779 274.25295679 358.1967893 279.5129776 358.21146011 C284.48039648 358.22520043 289.44773459 358.22919002 294.41517067 358.22621536 C296.22251387 358.22675827 298.02986025 358.2306365 299.83718681 358.23841095 C309.18083347 358.27657663 318.41333658 358.01526816 327.71820068 357.11471558 C328.52618929 357.03764818 329.3341779 356.96058079 330.16665101 356.88117802 C353.48624993 354.39032017 373.25615512 341.02366899 388.0390625 323.25 C406.19792928 300.35172224 414.5213146 271.61253392 418 243 C418.19722656 241.42025391 418.19722656 241.42025391 418.3984375 239.80859375 C421.06331609 212.76367723 420.38669717 182.41877519 403 160 C394.29115773 149.39929073 383.52996731 143.2838975 370 141 C366.9135547 140.74965128 363.85080228 140.73723807 360.75547791 140.75949097 C359.86982432 140.75778212 358.98417074 140.75607327 358.07167917 140.75431263 C355.12834942 140.75103993 352.18525182 140.76198462 349.24194336 140.77294922 C347.12241623 140.77351381 345.00288872 140.77319583 342.88336182 140.77206421 C337.14643993 140.77149158 331.40960209 140.78323143 325.67269969 140.79721212 C319.67092871 140.8097344 313.66915569 140.81089117 307.66737366 140.81326294 C296.30975414 140.8194733 284.95217323 140.83587814 273.5945707 140.85596192 C260.66111889 140.87833471 247.72766522 140.88931782 234.79419887 140.89935279 C208.1961112 140.92024474 181.59805776 140.95541212 155 141 Z " fill="#FFFFFF" transform="translate(1569,1)"/>
<path d="M0 0 C174.9 0 349.8 0 530 0 C525.03988511 47.12109146 518.16119874 94.02085963 512 141 C394.19 141 276.38 141 155 141 C152.69 159.48 150.38 177.96 148 197 C144.37 224.72 140.74 252.44 137 281 C244.91 281 352.82 281 464 281 C460.40272578 284.59727422 457.19889807 287.4927388 453.1875 290.5 C448.06171139 294.38011743 443.03889993 298.36770245 438.0625 302.4375 C430.22059879 308.84329626 422.27262683 315.10376671 414.29101562 321.33398438 C407.4738463 326.65868334 400.7033374 332.03241947 394 337.5 C386.17638634 343.88133442 378.24928465 350.12198695 370.29101562 356.33398438 C363.53227207 361.61304861 356.82463919 366.9435821 350.1875 372.375 C344.7270046 376.84159669 339.18786291 381.18067817 333.5625 385.4375 C326.96772717 390.43083637 320.54991256 395.60356404 314.18847656 400.89013672 C309.07294722 405.1363838 303.89006234 409.2833748 298.63989258 413.36181641 C296.06538425 415.36399204 293.62349018 417.35901997 291.26016045 419.61256695 C287.86962066 422.42733026 285.21667087 422.6175355 280.78665161 422.60127258 C280.08323761 422.60554471 279.37982361 422.60981683 278.65509403 422.61421841 C276.30993169 422.62242146 273.96657812 422.59501148 271.62158203 422.56762695 C269.93598981 422.56621589 268.25039451 422.56700961 266.56480408 422.56983948 C261.99685305 422.57127275 257.42955986 422.54189744 252.86176157 422.50696969 C248.08519237 422.47569141 243.30860771 422.47277429 238.5319519 422.46684265 C229.49030998 422.45130854 220.44897071 422.41028589 211.407462 422.3600952 C201.11251921 422.30418832 190.81756188 422.27671185 180.52250504 422.25161803 C159.34816784 422.19936969 138.174103 422.11143576 117 422 C116.94598526 422.79105857 116.89197052 423.58211714 116.83631897 424.39714718 C116.2736738 432.20581819 115.45537384 439.94256357 114.43359375 447.70336914 C114.20169846 449.49611267 114.20169846 449.49611267 113.96511841 451.32507324 C113.54615057 454.55827421 113.1241941 457.79106628 112.70067215 461.0236733 C112.25586775 464.42341168 111.81459594 467.82360888 111.37280273 471.22373962 C110.63208553 476.92022203 109.88866942 482.6163471 109.14355469 488.31225586 C108.28290566 494.89157285 107.42637398 501.47141593 106.57204723 508.05155665 C105.74719371 514.40409508 104.91966983 520.75628279 104.09085083 527.10830498 C103.73916468 529.80387186 103.38837334 532.49955293 103.03829956 535.19532967 C102.54998962 538.95092129 102.05862929 542.70610116 101.56640625 546.46118164 C101.42196075 547.57651779 101.27751526 548.69185394 101.12869263 549.84098816 C100.99413666 550.86264069 100.85958069 551.88429321 100.72094727 552.93690491 C100.60517838 553.82337739 100.48940948 554.70984987 100.37013245 555.62318516 C100 558 100 558 99 562 C219.45 562 339.9 562 464 562 C446 701 446 701 445 702 C442.14516604 702.099033 439.31449906 702.13174845 436.45918941 702.12304783 C435.54800215 702.12420167 434.63681489 702.12535552 433.6980159 702.12654433 C430.60439987 702.12921896 427.51083453 702.12468192 424.41722107 702.12025452 C422.19309049 702.12069005 419.96895997 702.12156461 417.74482971 702.12284368 C411.6016343 702.12509224 405.45845613 702.12106246 399.31526291 702.11606562 C393.38053384 702.11220731 387.44580599 702.1130248 381.51107612 702.11374746 C369.36527092 702.1150635 357.21947115 702.11171189 345.07366753 702.10573006 C333.04211844 702.09981964 321.0105716 702.09596545 308.97902107 702.09487724 C308.2318489 702.0948085 307.48467672 702.09473976 306.71486297 702.09466894 C302.92058772 702.09433062 299.12631247 702.09402923 295.33203722 702.09374207 C268.43432861 702.09163983 241.53662296 702.08489738 214.63891602 702.07543945 C188.50284847 702.06625992 162.36678173 702.05917391 136.23071289 702.05493164 C135.42554828 702.05480011 134.62038367 702.05466859 133.79082013 702.05453308 C125.7052672 702.05321459 117.61971426 702.05193877 109.53416132 702.05069422 C93.06192313 702.04815778 76.589685 702.04533653 60.1174469 702.04234314 C59.36002566 702.04220585 58.60260442 702.04206856 57.82223102 702.04192711 C7.21481943 702.03272137 -43.39259044 702.01685483 -94 702 C-93.46996069 692.85085135 -92.72031877 683.81549182 -91.47418213 674.73254395 C-91.32137443 673.58851986 -91.16856672 672.44449577 -91.01112849 671.26580429 C-90.50205132 667.46366112 -89.98589422 663.66251468 -89.46972656 659.86132812 C-89.0973531 657.09558891 -88.72649713 654.32964669 -88.35557079 651.56371307 C-87.55045718 645.56612135 -86.74167807 639.56903305 -85.93044853 633.57226562 C-84.72411662 624.65462429 -83.52364247 615.73620115 -82.32437035 606.817608 C-80.30593787 591.80830326 -78.28298918 576.79961057 -76.25747681 561.79125977 C-73.363212 540.34541016 -70.47526613 518.89871258 -67.58865793 497.45183122 C-66.42930336 488.83827108 -65.26975142 480.22473751 -64.11018372 471.61120605 C-63.91696653 470.17592472 -63.91696653 470.17592472 -63.71984597 468.71164781 C-61.73470053 453.96555369 -59.74842525 439.21961203 -57.76152039 424.47375488 C-50.18375134 368.23421106 -42.61988305 311.99281155 -35.06640625 255.75 C-34.80325925 253.79064748 -34.54011206 251.83129499 -34.27696466 249.87194252 C-31.95717873 232.59910556 -29.63756481 215.3262455 -27.31819725 198.05335236 C-23.96502156 173.08148818 -20.61102271 148.1097347 -17.25632019 123.13807559 C-16.66623292 118.74558035 -16.07615843 114.35308339 -15.48608303 109.96058655 C-14.57933212 103.21078452 -13.67257927 96.46098275 -12.76582146 89.71118164 C-12.65688151 88.90024506 -12.54794156 88.08930848 -12.43570041 87.25379807 C-11.78787491 82.43147104 -11.14003679 77.6091457 -10.49219101 72.7868214 C-9.48581559 65.29572784 -8.47948544 57.80462822 -7.47324949 50.31351593 C-7.02031953 46.94160502 -6.56735748 43.56969843 -6.11434412 40.19779873 C-5.78114046 37.71766179 -5.44801457 35.2375144 -5.11497653 32.75735521 C-4.80937742 30.48288164 -4.50334971 28.2084656 -4.19683015 25.93411589 C-3.574767 21.31362599 -2.95695342 16.69292058 -2.36667442 12.06825256 C-2.27466812 11.35378731 -2.18266181 10.63932206 -2.08786744 9.90320635 C-1.85798751 8.1100018 -1.63228566 6.31626287 -1.40705395 4.52246857 C-1 2 -1 2 0 0 Z " fill="#FFFFFF" transform="translate(2234,1)"/>
<path d="M0 0 C61.05 0 122.1 0 185 0 C192.64120445 28.21367795 200.27058858 56.4215626 207.69680786 84.69119263 C209.97534562 93.36206766 212.25977333 102.03139245 214.54348183 110.70090675 C215.35025252 113.76376282 216.15684231 116.82666648 216.96342468 119.88957214 C223.18265889 143.5031013 229.42825409 167.10965275 235.67665863 190.71547699 C236.83763175 195.10204536 237.99808213 199.48875196 239.15855026 203.87545395 C240.25889903 208.03422325 241.35993586 212.19281027 242.46098328 216.35139465 C243.24035142 219.29643587 244.01861295 222.24176787 244.79675293 225.18713379 C246.95015229 233.32989189 249.11495207 241.46819382 251.36279297 249.58544922 C251.7034227 250.82185654 252.04405243 252.05826385 252.39500427 253.33213806 C253.00008879 255.51846896 253.61212881 257.70289407 254.23304749 259.88478088 C254.48735031 260.80379684 254.74165314 261.72281281 255.00366211 262.66967773 C255.33266762 263.83188087 255.33266762 263.83188087 255.6683197 265.01756287 C256 267 256 267 255 270 C252.61767578 271.46704102 252.61767578 271.46704102 249.4453125 273.00390625 C248.27097656 273.58076172 247.09664062 274.15761719 245.88671875 274.75195312 C244.63306929 275.35600198 243.37916305 275.95951821 242.125 276.5625 C239.73057281 277.72810399 237.33707428 278.89536684 234.9453125 280.06640625 C234.3510443 280.35662501 233.7567761 280.64684378 233.14449978 280.94585705 C229.03622532 282.96438176 224.97376799 285.05350614 220.93373585 287.20508003 C208.28733566 293.94005676 195.47017944 300.33056181 182.64974046 306.72582674 C179.44867362 308.32317844 176.24878244 309.92288206 173.04875183 311.52230835 C167.02239366 314.53394953 160.99502137 317.54355499 154.9672572 320.55238092 C148.09068482 323.98502737 141.21528386 327.42001708 134.33996737 330.85517812 C120.22792226 337.90601107 106.11445103 344.95398436 92 352 C89.78109556 348.67164333 88.95504413 345.55291176 88.00390625 341.73510742 C87.81485214 340.99591568 87.62579803 340.25672394 87.43101501 339.49513245 C86.80276902 337.0332528 86.18271503 334.56938275 85.5625 332.10546875 C85.11903833 330.36219044 84.67501725 328.61905434 84.23046875 326.87605286 C83.05222647 322.25092403 81.88066332 317.62413 80.71075439 312.99688721 C78.87548673 305.74265489 77.03031236 298.49093136 75.18566895 291.23907852 C74.72879251 289.44260076 74.2721679 287.64605894 73.8157959 285.84945297 C68.99341264 266.8689305 64.020442 247.92898302 59 229 C56.50696376 232.07274238 54.30277852 234.99793364 52.44140625 238.4921875 C51.98016357 239.34965576 51.5189209 240.20712402 51.04370117 241.09057617 C50.55490479 242.00943604 50.0661084 242.9282959 49.5625 243.875 C48.488491 245.8693045 47.41292101 247.862769 46.3359375 249.85546875 C45.78389648 250.87688965 45.23185547 251.89831055 44.66308594 252.95068359 C42.05819278 257.72683091 39.37587068 262.45798192 36.6875 267.1875 C30.02008082 278.93395033 23.46012903 290.73869754 16.91162109 302.55175781 C6.08008395 322.09002481 -4.80237185 341.59903462 -15.72949219 361.08398438 C-22.9785358 374.01205876 -30.20243295 386.95359163 -37.39428711 399.91357422 C-41.57930345 407.45191004 -45.78296193 414.97953599 -50 422.5 C-54.76095297 430.99263974 -59.51028067 439.49163482 -64.2421875 448.00048828 C-64.9079077 449.19742998 -65.57391786 450.39421047 -66.24023438 451.59082031 C-67.16624364 453.25406819 -68.09096122 454.918035 -69.015625 456.58203125 C-69.54446289 457.53311768 -70.07330078 458.4842041 -70.61816406 459.46411133 C-71.79428286 461.62247633 -72.91923439 463.79273409 -74 466 C-55.2912489 456.7184218 -55.2912489 456.7184218 -36.75854492 447.09228516 C-28.70898095 442.82364102 -20.60347329 438.6650393 -12.5 434.5 C0.52764681 427.80314439 0.52764681 427.80314439 13.5 421 C22.04797901 416.47285425 30.64832612 412.0489447 39.25 407.625 C48.76271647 402.73243418 58.27087683 397.83247246 67.75 392.875 C76.2383428 388.43569429 84.74030605 384.02321058 93.25 379.625 C94.482911 378.98771322 95.71582115 378.35042481 96.94873047 377.71313477 C97.86442307 377.23981972 97.86442307 377.23981972 98.7986145 376.75694275 C99.71427689 376.28364281 99.71427689 376.28364281 100.6484375 375.80078125 C101.25960419 375.48488541 101.87077087 375.16898956 102.50045776 374.84352112 C117.13911724 367.27641071 131.76920636 359.69286951 146.375 352.0625 C156.83855914 346.59644798 167.32315976 341.17140239 177.8104248 335.7510376 C178.72797546 335.27679352 178.72797546 335.27679352 179.6640625 334.79296875 C180.27608521 334.4766449 180.88810791 334.16032104 181.51867676 333.83441162 C187.8902092 330.54076047 194.25794402 327.23979557 200.625 323.9375 C202.28354004 323.07729248 202.28354004 323.07729248 203.97558594 322.19970703 C206.20281937 321.04447194 208.43003296 319.88919859 210.65722656 318.73388672 C215.14510757 316.40603608 219.6333294 314.07884301 224.12158203 311.75170898 C226.36998396 310.58591307 228.61835646 309.4200604 230.86669922 308.25415039 C236.54087269 305.31175784 242.2154105 302.3700717 247.890625 299.4296875 C259.31297211 293.5108054 270.72951346 287.58131384 282.13085938 281.62207031 C287.57778578 278.7776483 293.0316937 275.94716614 298.4921875 273.12890625 C299.13574188 272.79663528 299.77929626 272.46436432 300.44235229 272.12202454 C303.59138059 270.49637397 306.74112256 268.87213315 309.89208984 267.25024414 C316.28168225 263.9537852 322.61850298 260.59336709 328.88183594 257.06201172 C331 256 331 256 333 256 C331.69302984 258.75321386 330.24417133 261.19633274 328.453125 263.66015625 C327.94531494 264.36132568 327.43750488 265.06249512 326.91430664 265.78491211 C326.36508545 266.53651611 325.81586426 267.28812012 325.25 268.0625 C324.67435303 268.85470947 324.09870605 269.64691895 323.50561523 270.46313477 C316.46151834 280.14246077 309.34477822 289.76848265 302.22949219 299.39550781 C295.94498265 307.90093735 289.67980365 316.41808621 283.5 325 C277.31898737 333.58359269 271.05214333 342.10201249 264.76611328 350.60888672 C261.84043897 354.56991162 258.92049694 358.53515717 256 362.5 C254.8333611 364.08335379 253.66669442 365.66668712 252.5 367.25 C251.9225 368.03375 251.345 368.8175 250.75 369.625 C245.5 376.75 245.5 376.75 243.74975586 379.12524414 C242.58379194 380.70768185 241.41793896 382.29020131 240.25219727 383.87280273 C237.32568557 387.84551887 234.39722466 391.81676994 231.46484375 395.78515625 C225.77035401 403.49539457 220.10117057 411.22163589 214.5 419 C208.31898737 427.58359269 202.05214333 436.10201249 195.76611328 444.60888672 C192.84043897 448.56991162 189.92049694 452.53515717 187 456.5 C185.8333611 458.08335379 184.66669442 459.66668712 183.5 461.25 C182.9225 462.03375 182.345 462.8175 181.75 463.625 C176.5 470.75 176.5 470.75 174.74975586 473.12524414 C173.58379194 474.70768185 172.41793896 476.29020131 171.25219727 477.87280273 C168.32568557 481.84551887 165.39722466 485.81676994 162.46484375 489.78515625 C161.8829126 490.57462646 161.30098145 491.36409668 160.70141602 492.17749023 C159.5266542 493.76589829 158.34614888 495.35007475 157.15991211 496.92993164 C154.27767112 500.79009723 151.54853321 504.65952345 149.0390625 508.7734375 C141.19251165 521.29956567 132.18288273 526.67900501 118.84667969 532.69140625 C114.63885822 534.62570497 110.57692601 536.80664257 106.5 539 C104.95532938 539.81681278 103.409743 540.63189594 101.86328125 541.4453125 C100.68693115 542.0645459 100.68693115 542.0645459 99.48681641 542.69628906 C96.82159716 544.0935275 94.15164748 545.48137757 91.48046875 546.8671875 C82.26529576 551.6503011 73.08727364 556.47776327 64 561.5 C51.94814366 568.14539495 39.68077025 574.37076428 27.41992188 580.61914062 C16.91926803 585.97259244 6.46914358 591.4138626 -3.95230103 596.91986084 C-8.4591697 599.29718554 -12.9802593 601.64727557 -17.5 604 C-35.88244069 613.57781479 -35.88244069 613.57781479 -54.17578125 623.32421875 C-69.64087067 631.65764498 -85.20455216 639.77397325 -100.83901978 647.78497314 C-101.55858856 648.15370544 -102.27815735 648.52243774 -103.01953125 648.90234375 C-104.07773575 649.44456573 -104.07773575 649.44456573 -105.15731812 649.9977417 C-111.98084266 653.4971976 -118.76888592 657.06172904 -125.546875 660.6484375 C-130.85238184 663.45567338 -136.17670536 666.22668737 -141.5 669 C-149.26807455 673.04827803 -157.02702949 677.11315196 -164.77490234 681.19995117 C-169.16943696 683.51606497 -173.56998641 685.82014903 -177.9765625 688.11328125 C-179.50893555 688.91088867 -179.50893555 688.91088867 -181.07226562 689.72460938 C-183.04695441 690.75175076 -185.02217938 691.77786225 -186.99804688 692.80273438 C-188.36413086 693.51333008 -188.36413086 693.51333008 -189.7578125 694.23828125 C-190.5533252 694.65118408 -191.34883789 695.06408691 -192.16845703 695.48950195 C-194.87107219 696.8357037 -194.87107219 696.8357037 -196.61230946 698.22130394 C-204.33681465 703.54897302 -213.0332048 702.66498777 -222.00415039 702.56762695 C-223.82811443 702.56621505 -225.65208131 702.56701124 -227.4760437 702.56983948 C-232.40742313 702.57126949 -237.33819001 702.54194704 -242.26942754 702.50696969 C-247.43035449 702.47563684 -252.59129669 702.47276999 -257.75230408 702.46684265 C-267.51632144 702.45132456 -277.28005768 702.41032359 -287.04395145 702.3600952 C-298.16361862 702.30413842 -309.28329948 702.2766993 -320.40307248 702.25161803 C-343.26887062 702.19940599 -366.13441953 702.11150324 -389 702 C-388.32879473 698.34437825 -387.45539921 695.65357592 -385.5859375 692.4296875 C-385.0801416 691.54764648 -384.5743457 690.66560547 -384.05322266 689.75683594 C-383.49940918 688.80583008 -382.9455957 687.85482422 -382.375 686.875 C-381.18126441 684.79486001 -379.98859867 682.71410578 -378.796875 680.6328125 C-378.17232422 679.54516602 -377.54777344 678.45751953 -376.90429688 677.33691406 C-373.76399625 671.83414112 -370.69476418 666.29233874 -367.625 660.75 C-366.35677681 658.46353835 -365.0885476 656.17708004 -363.8203125 653.890625 C-363.18899414 652.75173828 -362.55767578 651.61285156 -361.90722656 650.43945312 C-358.77506584 644.79097895 -355.63728082 639.14563143 -352.5 633.5 C-351.24997235 631.25001536 -349.99997237 629.00001535 -348.75 626.75 C-346.25 622.25 -343.75 617.75 -341.25 613.25 C-340.32175415 611.5791333 -340.32175415 611.5791333 -339.37475586 609.87451172 C-338.12562495 607.62610861 -336.87643881 605.37773618 -335.62719727 603.12939453 C-332.48844509 597.4802133 -329.35067557 591.8304904 -326.21484375 586.1796875 C-319.58931321 574.24278123 -312.94370133 562.31759071 -306.26708984 550.40917969 C-300.11171327 539.42520993 -294.00067614 528.41672498 -287.89111328 517.40722656 C-284.76254948 511.77048032 -281.63113923 506.1353159 -278.5 500.5 C-277.24998618 498.25000768 -275.99998618 496.00000768 -274.75 493.75 C-267.25 480.25 -259.75 466.75 -252.25 453.25 C-251.63108887 452.13592773 -251.01217773 451.02185547 -250.37451172 449.87402344 C-249.12624991 447.62721721 -247.87787776 445.38047227 -246.62939453 443.13378906 C-243.47688621 437.46042553 -240.32638684 431.78596278 -237.1796875 426.109375 C-231.34706716 415.59168202 -225.49738889 405.08537931 -219.5625 394.625 C-213.6453963 384.19250008 -207.8478847 373.69594416 -202.0635376 363.1895752 C-201.72674988 362.57787476 -201.38996216 361.96617432 -201.04296875 361.3359375 C-200.7060199 360.72391479 -200.36907104 360.11189209 -200.02191162 359.48132324 C-194.66325179 349.75240365 -189.25765202 340.04947221 -183.85888672 330.34277344 C-181.36358354 325.85555369 -178.87019969 321.36726896 -176.37695312 316.87890625 C-174.502825 313.5050856 -172.62836591 310.13144896 -170.75390625 306.7578125 C-168.23972366 302.23241482 -165.72682608 297.70630685 -163.21484375 293.1796875 C-156.58931321 281.24278123 -149.94370133 269.31759071 -143.26708984 257.40917969 C-137.11171327 246.42520993 -131.00067614 235.41672498 -124.89111328 224.40722656 C-121.76254948 218.77048032 -118.63113923 213.1353159 -115.5 207.5 C-114.24998618 205.25000768 -112.99998618 203.00000768 -111.75 200.75 C-109.25 196.25 -106.75 191.75 -104.25 187.25 C-103.63116943 186.13608887 -103.01233887 185.02217773 -102.37475586 183.87451172 C-101.12562495 181.62610861 -99.87643881 179.37773618 -98.62719727 177.12939453 C-95.48844509 171.4802133 -92.35067557 165.8304904 -89.21484375 160.1796875 C-82.58931321 148.24278123 -75.94370133 136.31759071 -69.26708984 124.40917969 C-63.11171327 113.42520993 -57.00067614 102.41672498 -50.89111328 91.40722656 C-47.76254948 85.77048032 -44.63113923 80.1353159 -41.5 74.5 C-40.24998618 72.25000768 -38.99998618 70.00000768 -37.75 67.75 C-35.25 63.25 -32.75 58.75 -30.25 54.25 C-29.63036377 53.13463867 -29.01072754 52.01927734 -28.37231445 50.87011719 C-27.13132163 48.63636247 -25.8902741 46.40263815 -24.64916992 44.16894531 C-21.73364965 38.92154568 -18.81866617 33.67385014 -15.90567017 28.42504883 C-14.53743043 25.95975778 -13.16887352 23.49464288 -11.80029297 21.02954102 C-10.84051181 19.30046418 -9.88118654 17.57113431 -8.921875 15.84179688 C-8.33535156 14.78541016 -7.74882812 13.72902344 -7.14453125 12.640625 C-6.63253174 11.71797852 -6.12053223 10.79533203 -5.59301758 9.84472656 C-3.7489622 6.55170997 -1.87252186 3.27691325 0 0 Z " fill="#FFFFFF" transform="translate(389,1)"/>
<path d="M0 0 C1.66593741 -0.00043645 3.33187476 -0.00131273 4.99781173 -0.00258917 C9.56091909 -0.00481954 14.12400286 -0.00083281 18.68710721 0.0041889 C23.6133754 0.00851416 28.53964231 0.0070455 33.46591187 0.00628662 C41.99613318 0.0057627 50.52634685 0.00889572 59.05656624 0.01452446 C71.38977682 0.02265734 83.72298371 0.02525652 96.05619668 0.02651245 C116.06683972 0.02870016 136.07747868 0.03535263 156.08811951 0.04481506 C175.52464274 0.05399645 194.96116486 0.06107373 214.39768982 0.06532288 C215.59609753 0.0655856 216.79450524 0.06584832 218.02922834 0.06611901 C224.04138926 0.06742406 230.0535502 0.06868777 236.06571114 0.06993091 C285.92922183 0.08029476 335.79272809 0.09790544 385.65623474 0.12025452 C384.53296898 1.88742919 383.40943917 3.65443602 382.28579712 5.42137146 C381.66015964 6.40539129 381.03452215 7.38941113 380.38992596 8.40324974 C377.31257401 13.22601163 374.14274704 17.98579157 370.96873474 22.74525452 C370.27247986 23.78995911 369.57622498 24.8346637 368.85887146 25.911026 C364.27301113 32.76667152 359.58921415 39.5408772 354.80271912 46.25746155 C351.36759543 51.08504548 348.04795994 55.97600823 344.78001404 60.91786194 C340.76753307 66.97751117 336.68356119 72.98760245 332.59373474 78.99525452 C331.86654236 80.06380676 331.13934998 81.13235901 330.39012146 82.23329163 C326.71040003 87.63866165 323.02772699 93.04201292 319.34373474 98.44447327 C318.63096375 99.49070862 317.91819275 100.53694397 317.18382263 101.61488342 C315.87155626 103.54105317 314.55838003 105.46660368 313.24388123 107.39125061 C312.61554382 108.31373596 311.98720642 109.23622131 311.33982849 110.18666077 C310.63387543 111.13504318 309.92792236 112.0834256 309.20057678 113.06054688 C307.02788414 116.21779411 305.77993705 119.36811535 304.46957397 122.96221924 C301.40063097 130.23062329 297.70237008 137.1299551 290.65623474 141.12025452 C276.33032376 146.11958432 258.88177387 144.01670345 243.99072504 143.62391186 C237.75625047 143.48617163 231.52184403 143.48922623 225.28608704 143.47773743 C214.81577615 143.44038363 204.34907119 143.32249036 193.88035583 143.13832092 C183.15135147 142.9498544 172.42316341 142.7999103 161.69285583 142.70960999 C160.70183558 142.70124001 160.70183558 142.70124001 159.69079472 142.69270095 C152.45713497 142.63250209 145.22342072 142.58073407 137.98968315 142.53091812 C135.42572362 142.51300586 132.86176449 142.49503528 130.29780579 142.477005 C129.04471143 142.46840871 127.79161707 142.45981242 126.50055015 142.45095563 C119.10198072 142.3962138 111.70483312 142.3073212 104.30704904 142.18673944 C99.68689175 142.11346167 95.06660716 142.05588249 90.44620514 142.00046349 C88.3218323 141.97092628 86.19754455 141.93411981 84.07344437 141.88905525 C55.83712637 141.29547889 31.8439108 148.32074144 10.88059998 167.989151 C-3.64910653 181.94774765 -13.98134751 198.75420905 -20.53126526 217.80775452 C-20.7570929 218.45260803 -20.98292053 219.09746155 -21.21559143 219.76185608 C-26.21999619 235.10457101 -28.26256845 251.36952089 -30.36817932 267.30628967 C-30.64407678 269.35411892 -30.92054264 271.40187166 -31.19752502 273.44955444 C-31.94011838 278.95570625 -32.67325343 284.46307368 -33.4033556 289.97089434 C-33.86235646 293.43168168 -34.32310594 296.89223204 -34.78437042 300.35271835 C-36.23477657 311.23719913 -37.67947572 322.12241364 -39.11561799 333.00878584 C-40.75935352 345.46863689 -42.4217354 357.92580671 -44.10070252 370.3809582 C-45.40698285 380.07997755 -46.69636326 389.78115482 -47.97352386 399.48405111 C-48.73228279 405.24586011 -49.49752525 411.00660384 -50.28054047 416.76517105 C-59.70842222 479.39234824 -59.70842222 479.39234824 -37.38673401 536.78041077 C-25.75433819 550.74360204 -8.24062387 558.65342718 9.65600395 560.41562843 C20.03463407 561.19473621 30.35307885 561.18431425 40.7562027 561.06112862 C45.15855127 561.00920674 49.560992 560.97026193 53.9634645 560.9304812 C56.32948329 560.90907234 58.6954967 560.8870613 61.0615046 560.86448073 C76.25173865 560.72233283 91.44242872 560.67364617 106.63319802 560.62257457 C110.63258021 560.60904616 114.63195742 560.59473883 118.6313324 560.57923889 C119.29531878 560.57668011 119.95930516 560.57412132 120.64341234 560.571485 C131.41412626 560.52804892 142.183329 560.42039437 152.95330323 560.29029231 C164.04951032 560.15780282 175.14466303 560.09946629 186.24169147 560.1042105 C192.45819924 560.10442955 198.67040486 560.07133176 204.88594437 559.95675278 C210.73038758 559.84986844 216.56837091 559.83281255 222.41350937 559.88310051 C224.54975438 559.88588245 226.68633743 559.85646308 228.82159424 559.79143333 C244.49687998 559.34040644 244.49687998 559.34040644 249.77868795 563.9877553 C253.69913031 568.54178905 256.6537549 573.54779448 259.43695045 578.85422063 C261.09373581 581.93334811 263.02519015 584.71464554 265.04685974 587.56556702 C266.33360333 589.45860232 267.62006214 591.35183122 268.90623474 593.24525452 C270.35935203 595.38328059 271.81247726 597.52130127 273.26560974 599.65931702 C273.99199646 600.72827209 274.71838318 601.79722717 275.46678162 602.89857483 C279.02879243 608.1399101 282.59258735 613.3800319 286.15623474 618.62025452 C287.57291032 620.70358179 288.98957697 622.78691513 290.40623474 624.87025452 C291.10748474 625.90150452 291.80873474 626.93275452 292.53123474 627.99525452 C298.90623474 637.37025452 298.90623474 637.37025452 301.0322113 640.49671936 C302.44558713 642.57519411 303.85899846 644.65364472 305.27244568 646.73207092 C308.8647571 652.01454086 312.45640628 657.29745903 316.04685974 662.58119202 C316.77010437 663.64523254 317.493349 664.70927307 318.23851013 665.80555725 C319.6679245 667.9088683 321.09681033 670.01253865 322.52513123 672.11659241 C325.8689234 677.03868902 329.22478269 681.95145064 332.61326599 686.84291077 C333.52930603 688.16863098 333.52930603 688.16863098 334.46385193 689.52113342 C335.60505556 691.17070294 336.75003966 692.81766565 337.8993988 694.46156311 C338.39794373 695.18295471 338.89648865 695.90434631 339.41014099 696.64759827 C339.84656921 697.27400208 340.28299744 697.90040588 340.73265076 698.54579163 C341.65623474 700.12025452 341.65623474 700.12025452 341.65623474 702.12025452 C284.48264598 702.21192499 227.30906435 702.28235963 170.13541648 702.32451583 C163.37673077 702.3295047 156.61804522 702.33469098 149.85935974 702.33998108 C148.85056372 702.34076563 148.85056372 702.34076563 147.82138798 702.34156604 C126.06630245 702.35857764 104.31125878 702.38859746 82.55619856 702.4254434 C59.5432228 702.46434857 36.53026419 702.48826095 13.51725435 702.4966085 C-0.25285264 702.5020812 -14.02283937 702.51933017 -27.79290932 702.55192038 C-37.25144535 702.57315815 -46.70991973 702.57943371 -56.16847783 702.57426003 C-61.61545013 702.5717126 -67.06221312 702.57545761 -72.50914764 702.59707642 C-115.1866478 702.7580166 -115.1866478 702.7580166 -134.34376526 698.12025452 C-135.13593728 697.93057995 -135.9281093 697.74090539 -136.74428654 697.54548311 C-170.13567012 689.3767621 -201.17174735 668.57406688 -219.34376526 639.12025452 C-240.48671104 603.68179426 -244.65920621 563.58826015 -239.5904541 523.17781067 C-239.4093463 521.69160067 -239.22866056 520.20533919 -239.04836744 518.71903014 C-237.25870759 504.06825745 -235.30677816 489.43846967 -233.31744945 474.81366706 C-232.800597 471.00890382 -232.28725777 467.20366604 -231.77339172 463.39849854 C-230.77350909 455.9985755 -229.77045215 448.5990864 -228.76608009 441.19977149 C-227.94813402 435.17360679 -227.13126874 429.14729649 -226.3151226 423.12088776 C-226.19776765 422.25436659 -226.08041269 421.38784542 -225.95950152 420.49506603 C-225.72090477 418.7333212 -225.48230857 416.9715763 -225.24371289 415.20983133 C-223.020873 398.7980009 -220.79416033 382.38669769 -218.56622642 365.97555813 C-216.53849978 351.03823175 -214.51576156 336.10023481 -212.49535466 321.16191676 C-210.40705696 305.72198994 -208.31530798 290.28253416 -206.21994346 274.84356475 C-205.04907879 266.21600439 -203.87950235 257.58827454 -202.71357918 248.96004486 C-201.72190051 241.62155451 -200.72690795 234.28352214 -199.72791833 226.94602332 C-199.22070324 223.21993341 -198.71482109 219.49367812 -198.21310234 215.7668438 C-196.24084133 201.12502601 -194.15733145 186.50654296 -191.76477051 171.92707825 C-191.5701918 170.72698097 -191.37561309 169.52688368 -191.17513806 168.29041982 C-184.85221334 130.60121669 -168.78732887 93.87700338 -143.34376526 65.12025452 C-142.88502014 64.60124573 -142.42627502 64.08223694 -141.95362854 63.54750061 C-126.30817781 45.95217175 -108.31538948 31.87322107 -87.34376526 21.12025452 C-86.68086487 20.77655823 -86.01796448 20.43286194 -85.3349762 20.07875061 C-58.69612966 6.42618159 -29.83494629 -0.05817074 0 0 Z " fill="#FFFFFF" transform="translate(2991.343765258789,0.8797454833984375)"/>
<path d="M0 0 C206.58 0 413.16 0 626 0 C622.63842663 6.05083206 619.33952151 11.57737728 615.3125 17.125 C611.51860267 22.42576759 607.77947042 27.74767205 604.1875 33.1875 C600.15545893 39.28553205 596.06054955 45.33811621 591.9375 51.375 C591.30336182 52.3036084 590.66922363 53.2322168 590.01586914 54.18896484 C588.69111995 56.12877028 587.36633068 58.06854834 586.04150391 60.00830078 C582.56320699 65.10553235 579.09413289 70.20902892 575.625 75.3125 C574.56236938 76.87556885 574.56236938 76.87556885 573.47827148 78.47021484 C572.0378812 80.58900141 570.59753299 82.70781659 569.15722656 84.82666016 C565.60539646 90.05150032 562.05264545 95.27571421 558.5 100.5 C557.8097876 101.51505615 557.1195752 102.5301123 556.40844727 103.57592773 C553.08189064 108.46810478 549.75513645 113.36014721 546.42776489 118.25177002 C544.85216457 120.56810878 543.27666426 122.88451556 541.70117188 125.20092773 C540.58603526 126.84039853 539.47075357 128.47977064 538.35546875 130.11914062 C537.68257812 131.10849609 537.0096875 132.09785156 536.31640625 133.1171875 C535.72287354 133.98972168 535.12934082 134.86225586 534.51782227 135.76123047 C533.33745815 137.5022533 532.16677332 139.24984001 531 141 C528.41129875 141.38476086 528.41129875 141.38476086 525.06491089 141.39872742 C523.80003845 141.41126556 522.53516602 141.42380371 521.23196411 141.4367218 C519.82244847 141.43554762 518.41293305 141.43408841 517.00341797 141.43237305 C515.52530087 141.44138508 514.04719128 141.45171091 512.5690918 141.46325684 C508.54865777 141.49091895 504.52836516 141.50012376 500.50784826 141.50611091 C496.30905863 141.51547074 492.11037564 141.54167206 487.91165161 141.56611633 C479.95731303 141.6098511 472.00299505 141.63835511 464.04857266 141.66143972 C454.9942239 141.6884541 445.93998207 141.73236783 436.88570952 141.77772844 C418.25719605 141.87067458 399.62865432 141.94230956 381 142 C380.8612678 143.04019299 380.72253559 144.08038598 380.57959938 145.15209997 C374.44583561 191.1419983 368.31174076 237.13185247 362.17602539 283.12149048 C362.08267743 283.82117141 361.98932947 284.52085235 361.89315279 285.24173574 C359.86292982 300.4590684 357.83264956 315.67639341 355.80231053 330.89371058 C354.80618467 338.35964027 353.81007144 345.82557164 352.81396484 353.29150391 C352.71485646 354.03433091 352.61574807 354.77715792 352.5136364 355.54249484 C349.31923318 379.48490255 346.1256583 403.42742066 342.93252742 427.3699981 C339.64260848 452.03827292 336.35182505 476.70643227 333.06000119 501.37445297 C332.59172994 504.88355169 332.12346825 508.39265169 331.6552124 511.90175247 C331.5630807 512.59218348 331.47094901 513.28261449 331.37602544 513.99396764 C329.91148883 524.96932805 328.44782523 535.94480469 326.98451424 546.92032857 C325.50217836 558.03839859 324.01884069 569.15633471 322.53463501 580.2741553 C321.73504509 586.26389315 320.93582557 592.25367964 320.1377964 598.24362564 C319.91256875 599.93363036 319.91256875 599.93363036 319.68279105 601.65777659 C319.41177594 603.6915483 319.14088586 605.72533667 318.87018889 607.75915074 C314.68141923 639.18743044 310.33234337 670.59051056 306 702 C248.58 702 191.16 702 132 702 C132 696.72800211 132.1030712 692.23122918 132.79026508 687.10564327 C132.91848485 686.13290613 132.91848485 686.13290613 133.04929492 685.14051774 C133.33529479 682.98059343 133.62874183 680.82174979 133.92219543 678.66282654 C134.13184211 677.0914776 134.34102624 675.52006689 134.54978961 673.94860035 C135.12407528 669.63587588 135.70490052 665.32405381 136.28679955 661.01235092 C136.91470443 656.35105451 137.53651693 651.68894501 138.15907288 647.02693176 C139.24257484 638.91943981 140.32992625 630.81247156 141.41983986 622.70583916 C143.01656401 610.82942724 144.6072171 598.95220808 146.19647034 587.07479442 C148.80278633 567.59741398 151.41370056 548.12065281 154.02758789 528.64428711 C157.73419719 501.02579237 161.43524567 473.40655453 165.13476562 445.78710938 C166.19006408 437.90873275 167.24537627 430.03035797 168.30069734 422.15198438 C168.60059754 419.91309758 168.90049342 417.6742102 169.20038496 415.43532224 C171.13422302 400.99798703 173.06885437 386.5607584 175.004269 372.12363446 C180.6777232 329.8026134 186.34434232 287.48072776 191.96630859 245.15283203 C192.0813157 244.2869888 192.1963228 243.42114557 192.31481497 242.52906467 C194.55041144 225.69747647 196.78347053 208.86555314 199.01224756 192.03306055 C199.66238037 187.1232239 200.31310224 182.21346537 200.96398477 177.30372806 C201.5468622 172.90633832 202.12824884 168.508753 202.70931816 164.11112404 C203.00270605 161.89695653 203.29614503 159.68279579 203.58964539 157.46864319 C203.78443244 155.99035881 203.78443244 155.99035881 203.98315459 154.4822101 C204.58198845 149.97331616 205.21324446 145.48096993 206 141 C205.44084082 141.01843586 204.88168163 141.03687172 204.30557823 141.05586624 C190.64104039 141.49935574 176.97777658 141.82806505 163.30756187 142.03624344 C156.69579055 142.14033665 150.08923637 142.28129276 143.48046875 142.50878906 C137.09329355 142.7272634 130.71110877 142.84590073 124.32048416 142.89754486 C121.89184586 142.93430476 119.46346045 143.00610773 117.03696823 143.11460114 C98.55640482 143.90750101 98.55640482 143.90750101 92.62375641 139.05732727 C88.35623314 134.32389422 85.21864933 129.06572805 82.29118347 123.42885113 C80.49063022 120.04182218 78.37348057 116.96212937 76.1875 113.8125 C75.38961427 112.60874225 74.59250389 111.40446936 73.796875 110.19921875 C70.22162168 104.8110296 66.5764 99.47031148 62.9375 94.125 C62.20942139 93.05548096 61.48134277 91.98596191 60.73120117 90.8840332 C59.23356929 88.68461642 57.73577589 86.48531043 56.23779297 84.28613281 C52.65573563 79.02598752 49.07803203 73.76288378 45.5 68.5 C44.08595529 66.42056082 42.67189275 64.34113376 41.2578125 62.26171875 C38.39806329 58.05624387 35.53873024 53.85048645 32.6796875 49.64453125 C29.14835434 44.44975011 25.6161258 39.25557911 22.08300781 34.06201172 C20.68113341 32.00126292 19.27944408 29.9403882 17.87792969 27.87939453 C15.83613998 24.87734781 13.79322694 21.87606865 11.75 18.875 C11.1420459 17.98079346 10.5340918 17.08658691 9.90771484 16.1652832 C7.34699088 12.40631331 4.77112698 8.67339233 2.078125 5.0078125 C0 2 0 2 0 0 Z " fill="#FFFFFF" transform="translate(3389,1)"/>
<path d="M0 0 C0.66 0 1.32 0 2 0 C7.38517347 19.19663385 12.48769073 38.450544 17.40585327 57.77139282 C19.46782855 65.87059334 21.54213544 73.96664163 23.6171875 82.0625 C23.83481184 82.91176371 24.05243618 83.76102741 24.2766552 84.63602638 C29.5089663 105.04683745 34.84623851 125.42998457 40.1875 145.8125 C49.21711697 180.27416226 58.15735812 214.7581927 67.034482 249.25945377 C67.98483664 252.95266533 68.93574996 256.64573289 69.88681221 260.33876228 C70.34719902 262.12695067 70.80734009 263.91520235 71.26722527 265.70351982 C73.78205498 275.48100048 76.32298157 285.25068526 78.91943359 295.00683594 C79.15509254 295.89413832 79.39075148 296.7814407 79.6335516 297.69563103 C80.75414373 301.91416899 81.87942614 306.13133124 83.01411438 310.34609985 C83.41154585 311.83793924 83.80878892 313.32982883 84.20581055 314.82177734 C84.4805763 315.83080172 84.4805763 315.83080172 84.76089287 316.86021042 C85.61139801 320.07638457 86 322.63303499 86 326 C25.28 326 -35.44 326 -98 326 C-106.25 297.62 -114.5 269.24 -123 240 C-130.10024703 215.98112609 -130.10024703 215.98112609 -137.24682617 191.97631836 C-138.12033223 188.34683035 -137.97446367 186.29416971 -136 183 C-134.61816406 180.89794922 -134.61816406 180.89794922 -133.015625 178.8046875 C-132.4172583 178.01610352 -131.8188916 177.22751953 -131.20239258 176.41503906 C-130.55810303 175.57682617 -129.91381348 174.73861328 -129.25 173.875 C-127.88335498 172.07609766 -126.51748785 170.27660412 -125.15234375 168.4765625 C-124.45866699 167.56422852 -123.76499023 166.65189453 -123.05029297 165.71191406 C-119.93158379 161.58681028 -116.87070617 157.42004699 -113.8125 153.25 C-109.57135956 147.47727092 -105.30698017 141.72377824 -101 136 C-96.67650294 130.25237684 -92.38903774 124.47937653 -88.125 118.6875 C-87.53831543 117.89069824 -86.95163086 117.09389648 -86.34716797 116.27294922 C-83.41474278 112.28789972 -80.48647219 108.29984916 -77.5625 104.30859375 C-70.70164781 94.95519298 -63.73320964 85.6942387 -56.68017578 76.48486328 C-52.63485215 71.18846947 -48.69593368 65.83897706 -44.86621094 60.38549805 C-41.04764718 54.98588438 -37.02317484 49.74808333 -33 44.5 C-28.55846858 38.70493714 -24.14326317 32.90644849 -19.9375 26.9375 C-15.69846046 20.94487487 -11.37316333 15.02052266 -7 9.125 C-6.33991943 8.22515381 -5.67983887 7.32530762 -4.99975586 6.39819336 C-4.38108643 5.56811768 -3.76241699 4.73804199 -3.125 3.8828125 C-2.29355469 2.75963623 -2.29355469 2.75963623 -1.4453125 1.61376953 C-0.96835937 1.08122559 -0.49140625 0.54868164 0 0 Z " fill="#FFFFFF" transform="translate(670,377)"/>
<path d="M0 0 C13.68245948 -0.09275887 27.36484391 -0.16379524 41.04755402 -0.20724869 C47.40128196 -0.22810619 53.75479447 -0.25639098 60.10839844 -0.30175781 C66.24218356 -0.34528003 72.37576169 -0.36915093 78.50968933 -0.37950897 C80.84762326 -0.38688881 83.18554611 -0.4012999 85.52339172 -0.42292023 C88.80295117 -0.45203804 92.08165981 -0.45595237 95.36132812 -0.45410156 C96.3237442 -0.46848267 97.28616028 -0.48286377 98.27774048 -0.49768066 C106.30786257 -0.44877713 112.4844806 2.01699922 118.5546875 7.390625 C128.73055284 18.72158857 128.75321551 31.81083011 128.1953125 46.19775391 C127.28604298 59.24349841 121.858072 74.04816332 112 83 C97.96349843 94.59646456 82.99808137 96.81486299 65.3671875 97.1953125 C64.34891624 97.219422 64.34891624 97.219422 63.31007385 97.24401855 C59.88615978 97.32304994 56.46459747 97.37977726 53.03979492 97.39550781 C41.95701082 97.57191477 41.95701082 97.57191477 32 102 C26.4091318 109.48032449 26.4091318 109.48032449 25 127 C51.4 127 77.8 127 105 127 C117 156 117 156 117 159 C72.12 159 27.24 159 -19 159 C-17.84110274 143.93433568 -17.84110274 143.93433568 -16.94921875 137.3828125 C-16.79910088 136.26518021 -16.79910088 136.26518021 -16.64595032 135.12496948 C-16.43539533 133.57049779 -16.22276425 132.0163059 -16.00805664 130.46240234 C-15.68904685 128.13627917 -15.38439177 125.80855399 -15.08007812 123.48046875 C-12.53578262 104.60585712 -8.60201916 87.42443697 6 74 C15.20504876 67.13963347 25.37808254 63.98439033 36.77734375 63.75390625 C38.09669922 63.72103516 39.41605469 63.68816406 40.77539062 63.65429688 C42.84150784 63.60743348 44.90761289 63.56307689 46.97387695 63.52319336 C66.32015285 63.95307172 66.32015285 63.95307172 83 56 C86.66280174 51.80347573 87.65365391 47.59624437 87.390625 42.08203125 C86.78663459 38.86276234 85.38053949 37.1821612 83 35 C79.52116131 32.77457453 76.56954472 32.72789555 72.48730469 32.68115234 C71.52082504 32.66608391 71.52082504 32.66608391 70.53482056 32.65071106 C68.41384744 32.61992177 66.2930003 32.60285622 64.171875 32.5859375 C62.69784464 32.56722238 61.22382495 32.5476487 59.74981689 32.5272522 C55.87669166 32.47596115 52.00353171 32.43631938 48.13024902 32.39910889 C44.17528719 32.35905017 40.22046942 32.30796637 36.265625 32.2578125 C28.51051556 32.1610891 20.75533633 32.07667301 13 32 C11.3892842 28.35702623 9.78764845 24.71012631 8.1875 21.0625 C7.73568359 20.04091797 7.28386719 19.01933594 6.81835938 17.96679688 C6.37685547 16.95810547 5.93535156 15.94941406 5.48046875 14.91015625 C5.07723389 13.99371338 4.67399902 13.07727051 4.25854492 12.13305664 C2.65665086 8.14525713 1.3210111 4.08800385 0 0 Z " fill="#FFFFFF" transform="translate(4103,0)"/>
<path d="M0 0 C38.94 0 77.88 0 118 0 C116.35543844 4.11140391 115.09139147 6.46583335 112.5 9.875 C108.55358034 15.17551228 104.87190768 20.61745935 101.23828125 26.13623047 C98.08944265 30.91055735 98.08944265 30.91055735 97 32 C94.97585009 32.12375169 92.94742263 32.17797311 90.91967773 32.20532227 C88.96776772 32.2352401 88.96776772 32.2352401 86.97642517 32.26576233 C85.5454826 32.28274799 84.11453875 32.29962675 82.68359375 32.31640625 C81.2277008 32.33696906 79.77181391 32.35796534 78.31593323 32.37937927 C74.47727353 32.43466961 70.63855935 32.48404802 66.79980469 32.53222656 C62.88536712 32.58239091 58.97100904 32.63810336 55.05664062 32.69335938 C47.37115907 32.80102606 39.68561123 32.90193948 32 33 C30.68 41.91 29.36 50.82 28 60 C31.32578125 59.95359375 34.6515625 59.9071875 38.078125 59.859375 C41.33494545 59.82809085 44.59174852 59.80385354 47.84863281 59.78027344 C50.09480403 59.76028168 52.34092403 59.73307902 54.58691406 59.69824219 C84.43866404 59.24714908 84.43866404 59.24714908 96 70 C105.64951111 79.86881818 106.26668739 90.65868953 106.24438477 103.72802734 C106.06599912 119.29771307 102.12453085 134.6653886 91 146.26171875 C86.9999602 149.73831584 82.72324887 152.60414912 78 155 C77.05954079 155.50563477 77.05954079 155.50563477 76.1000824 156.02148438 C65.87795738 160.63623826 54.57372211 159.49680417 43.61328125 159.390625 C41.34214275 159.38315464 39.07099775 159.37746547 36.79985046 159.37347412 C30.85350409 159.35828048 24.90755523 159.31905291 18.96136475 159.2746582 C12.88119889 159.23356982 6.80096812 159.21543422 0.72070312 159.1953125 C-11.18637153 159.15255242 -23.09315257 159.08437754 -35 159 C-34.20804476 157.56236913 -33.41460535 156.1255558 -32.62054443 154.68908691 C-32.17885799 153.88887367 -31.73717155 153.08866043 -31.28210068 152.2641983 C-29.73442619 149.5309949 -28.04277022 146.93305732 -26.265625 144.34375 C-25.60949219 143.3846875 -24.95335938 142.425625 -24.27734375 141.4375 C-23.60832031 140.468125 -22.93929687 139.49875 -22.25 138.5 C-21.56550781 137.4996875 -20.88101563 136.499375 -20.17578125 135.46875 C-15.16301407 128.16301407 -15.16301407 128.16301407 -14 127 C-12.17640526 126.88706693 -10.34849575 126.8431819 -8.52148438 126.82641602 C-7.34936401 126.81292618 -6.17724365 126.79943634 -4.96960449 126.78553772 C-3.05105652 126.76988014 -3.05105652 126.76988014 -1.09375 126.75390625 C0.90673848 126.7293965 2.90722689 126.70487549 4.90770721 126.67970943 C9.85212157 126.61897526 14.79663397 126.5685774 19.74121094 126.52319336 C22.50801988 126.49740988 25.27468867 126.46652656 28.04138184 126.43040466 C30.64684134 126.39677522 33.25241353 126.37076977 35.85803223 126.35340881 C49.35705128 126.20751796 49.35705128 126.20751796 61 120 C64.91904712 114.94649187 65.65428655 110.89466191 65.375 104.5234375 C64.83274919 100.87454142 63.88354554 99.30683643 61 97 C53.53919757 93.30751397 46.1871896 93.52438376 38 93.48828125 C36.55410256 93.47141127 35.10821957 93.45325794 33.66235352 93.43388367 C29.8813326 93.3866287 26.10037032 93.35666179 22.31915283 93.33044434 C18.45093205 93.30051416 14.58291285 93.25402706 10.71484375 93.20898438 C3.14332975 93.12323061 -4.42819937 93.05576229 -12 93 C-12.09322722 87.04534289 -11.82240143 81.37608133 -11.00610352 75.48266602 C-10.90042053 74.68477158 -10.79473755 73.88687714 -10.68585205 73.06480408 C-10.33933545 70.4603573 -9.98435126 67.85714827 -9.62890625 65.25390625 C-9.3842643 63.43315608 -9.14004391 61.61234921 -8.89622498 59.79148865 C-8.38626973 55.99272349 -7.87229493 52.1945316 -7.35522461 48.39672852 C-6.69182196 43.52281457 -6.03693021 38.6478035 -5.3847971 33.77237034 C-4.88230642 30.02060919 -4.37619277 26.26934414 -3.86887932 22.51823235 C-3.62593501 20.71976195 -3.38393402 18.92116386 -3.14288521 17.12243843 C-2.80658685 14.61831663 -2.46561983 12.1148758 -2.12329102 9.61157227 C-1.97439674 8.49342636 -1.97439674 8.49342636 -1.82249451 7.35269165 C-1.11441087 2.22882175 -1.11441087 2.22882175 0 0 Z " fill="#FFFFFF" transform="translate(4266,0)"/>
<path d="M0 0 C1.13050781 -0.03738281 2.26101562 -0.07476563 3.42578125 -0.11328125 C7.33730814 0.39732525 8.90171362 1.58202707 11.6875 4.3125 C14.46380204 9.07187493 14.46130375 14.25044802 13.140625 19.4765625 C10.85410483 25.58113994 6.88563458 29.47049862 2.2109375 33.8984375 C-0.00225793 36.01570496 -2.01402251 38.17254222 -4 40.5 C-4.55300781 41.13292969 -5.10601563 41.76585937 -5.67578125 42.41796875 C-6.79727493 43.71611776 -7.89801943 45.03240094 -8.98046875 46.36328125 C-13.13099019 51.10266386 -13.13099019 51.10266386 -16.75390625 51.74609375 C-18.98618545 51.74958714 -21.10431877 51.62795446 -23.3125 51.3125 C-21.69135498 46.51428341 -19.01973241 42.6452141 -16.1875 38.5 C-15.71957031 37.80712891 -15.25164063 37.11425781 -14.76953125 36.40039062 C-13.62137563 34.70158895 -12.46750633 33.00665136 -11.3125 31.3125 C-11.77350098 30.8882373 -12.23450195 30.46397461 -12.70947266 30.02685547 C-16.33231045 26.57616592 -17.78293203 23.91953635 -17.9375 18.875 C-17.5423975 12.18582283 -15.60187498 7.43834819 -10.6875 2.875 C-6.87888694 0.36933351 -4.5756838 0.09845752 0 0 Z " fill="#FFFFFF" transform="translate(4074.3125,4.6875)"/>
</svg>
