<?xml version="1.0" encoding="UTF-8"?>
<svg version="1.1" xmlns="http://www.w3.org/2000/svg" width="512" height="512">
<path d="M0 0 C1.21042969 -0.05994141 1.21042969 -0.05994141 2.4453125 -0.12109375 C6.11375327 0.72229376 7.55981499 2.53170657 9.875 5.4375 C10.9140625 8.50390625 10.9140625 8.50390625 11.5 12 C11.61061768 12.63333252 11.72123535 13.26666504 11.83520508 13.91918945 C12.20540346 16.08875435 12.54140153 18.26201694 12.875 20.4375 C13.15752333 22.20052544 13.44007664 23.96354608 13.72265625 25.7265625 C14.2696622 29.21553097 14.80990411 32.70527106 15.32421875 36.19921875 C15.43080811 36.92069092 15.53739746 37.64216309 15.6472168 38.38549805 C15.875 40.4375 15.875 40.4375 15.875 44.4375 C16.63619644 44.36011093 17.39739288 44.28272186 18.18165588 44.20298767 C25.37485213 43.47318384 32.56879549 42.75149467 39.76370335 42.03877926 C43.46215397 41.67213163 47.1602428 41.30241565 50.85766602 40.92553711 C54.42959618 40.56156655 58.0022632 40.20585261 61.57557487 39.8557148 C62.93492649 39.72107858 64.29399305 39.58352987 65.65274239 39.44294548 C67.56400754 39.24570989 69.4764541 39.06002811 71.38891602 38.87475586 C73.0177346 38.71154091 73.0177346 38.71154091 74.67945862 38.54502869 C80.03670755 38.36475941 83.69728754 38.41013382 87.8125 42 C90.14109068 44.64306273 90.44079238 47.57035156 90.34106445 51.03540039 C89.31805544 56.30799634 86.2098044 60.81071664 83.5 65.375 C82.86384766 66.47730957 82.22769531 67.57961914 81.57226562 68.71533203 C79.69057213 71.96660656 77.78634372 75.20358842 75.875 78.4375 C74.89270725 80.11297537 73.91088078 81.78872427 72.9296875 83.46484375 C71.29675056 86.24812102 69.65485159 89.02583311 68.0078125 91.80078125 C65.16778771 96.60902697 62.49499553 101.5063702 59.875 106.4375 C60.59308838 106.70973389 61.31117676 106.98196777 62.05102539 107.26245117 C64.84872242 108.42656596 67.41550004 109.75856443 70.05859375 111.23828125 C71.05874512 111.79725098 72.05889648 112.3562207 73.08935547 112.93212891 C74.15299316 113.53202637 75.21663086 114.13192383 76.3125 114.75 C77.95822998 115.6769165 77.95822998 115.6769165 79.63720703 116.62255859 C83.05398928 118.55361256 86.46568091 120.49330239 89.875 122.4375 C90.95507324 123.05318848 92.03514648 123.66887695 93.14794922 124.30322266 C96.18885951 126.04471106 99.22105342 127.80030097 102.25 129.5625 C103.17611084 130.09399658 104.10222168 130.62549316 105.05639648 131.1730957 C105.91177002 131.67542725 106.76714355 132.17775879 107.6484375 132.6953125 C108.39528809 133.1298877 109.14213867 133.56446289 109.91162109 134.01220703 C112.75285424 136.07476847 114.60000047 138.15646054 115.34375 141.62109375 C115.40126188 145.76913818 115.26712324 147.86156899 112.875 151.375 C106.24020467 155.93642179 97.30852155 156.20447071 89.51193237 157.3807373 C22.07362756 167.66316848 -42.51386362 192.88235673 -96.125 235.4375 C-97.04667969 236.16453125 -97.96835937 236.8915625 -98.91796875 237.640625 C-116.73706537 251.93704306 -134.24756404 268.2653063 -148.125 286.4375 C-148.97274585 287.49810854 -149.82317369 288.55657701 -150.67578125 289.61328125 C-162.35249502 304.14444204 -172.60715581 319.41829374 -182.125 335.4375 C-181.24763184 335.60354736 -180.37026367 335.76959473 -179.46630859 335.94067383 C-176.18850234 336.56542032 -172.9124396 337.1981346 -169.63720703 337.83618164 C-168.22375519 338.10986234 -166.80969528 338.38042292 -165.39501953 338.64770508 C-163.35278237 339.03413262 -161.31305023 339.43201069 -159.2734375 339.83203125 C-158.04802246 340.06768799 -156.82260742 340.30334473 -155.56005859 340.54614258 C-147.89087902 342.53620474 -143.63506013 346.24904524 -138.8125 352.375 C-135.88005834 357.78690453 -136.36848306 364.50122747 -137.125 370.4375 C-141.51439509 381.11440697 -151.83259441 389.24427252 -159.92041016 397.1965332 C-163.33167919 400.56574119 -166.62579023 403.96004278 -169.7421875 407.60546875 C-171.85739798 410.07190452 -173.99117462 412.28497586 -176.46875 414.38671875 C-176.99210938 414.84369141 -177.51546875 415.30066406 -178.0546875 415.77148438 C-179.11016989 416.68124718 -180.18934578 417.5641564 -181.2890625 418.41992188 C-183.86121047 420.74325654 -185.03292388 422.41986393 -185.34985352 425.92260742 C-185.1706955 428.7331056 -184.8574498 431.49297907 -184.44390869 434.27828979 C-184.08529833 436.70630502 -183.77038187 439.13805715 -183.45849609 441.57250977 C-182.55642941 448.5344478 -181.60588196 455.48967981 -180.63354492 462.44213867 C-176.09786141 495.00568588 -176.09786141 495.00568588 -180.7890625 502.7578125 C-185.10837604 508.18852836 -189.85553366 511.45274693 -196.6484375 513.01953125 C-207.93003403 513.93133152 -216.79670766 508.29248932 -226.53173828 503.27050781 C-232.8257706 500.0395432 -239.20715527 496.98254774 -245.57434082 493.89916992 C-247.78773462 492.82452408 -249.99723159 491.74220741 -252.20605469 490.65820312 C-253.57871173 489.98814949 -254.95143026 489.31822179 -256.32421875 488.6484375 C-256.95243027 488.33848846 -257.58064178 488.02853943 -258.22789001 487.709198 C-262.52864546 485.62006554 -262.52864546 485.62006554 -267.125 484.4375 C-269.88003013 485.49567267 -272.42041385 486.61997011 -275.0546875 487.92578125 C-275.83345749 488.30019852 -276.61222748 488.67461578 -277.41459656 489.06037903 C-279.08288363 489.86392286 -280.74866207 490.67269191 -282.41213989 491.48614502 C-285.00568255 492.75277524 -287.6067129 494.00254348 -290.21069336 495.24755859 C-296.43978337 498.22880092 -302.6651481 501.21774744 -308.85693359 504.27587891 C-330.86400921 515.13412793 -330.86400921 515.13412793 -342.47265625 511.75390625 C-348.22374433 509.33522435 -352.50609671 504.81542055 -355.18563843 499.22442627 C-358.36833409 489.78190869 -355.74676523 478.49984423 -354.0234375 468.953125 C-353.61052649 466.44706692 -353.20045224 463.94054006 -352.79296875 461.43359375 C-352.15183318 457.54193535 -351.49433944 453.65637663 -350.78857422 449.77587891 C-350.1065752 445.98747208 -349.49703049 442.19298128 -348.8984375 438.390625 C-348.67183441 437.2393512 -348.44523132 436.08807739 -348.21176147 434.9019165 C-347.46639044 429.82887802 -347.12701911 426.83381762 -350.18951416 422.5489502 C-352.72695963 420.00901266 -355.36414097 417.72881709 -358.125 415.4375 C-359.30110883 414.1520591 -360.45465596 412.84472 -361.5625 411.5 C-364.86778617 407.63211192 -368.45494996 404.0782893 -372.07348633 400.50854492 C-375.34191138 397.2671177 -378.39098029 393.91057619 -381.37109375 390.40625 C-383.42335303 388.10260038 -385.60434461 385.96679794 -387.8125 383.8125 C-394.0298547 377.66928752 -397.23792352 372.83527798 -397.5625 363.875 C-397.50984947 356.60170539 -395.81007847 351.9704581 -391.125 346.4375 C-381.8993676 337.66189845 -361.63498702 337.47874079 -349.57446289 335.3659668 C-346.0389475 334.7458691 -342.50479621 334.11838186 -338.97070312 333.49023438 C-336.71882744 333.09331042 -334.46687694 332.69681058 -332.21484375 332.30078125 C-331.16070786 332.1133284 -330.10657196 331.92587555 -329.02049255 331.73274231 C-328.04169632 331.56223862 -327.06290009 331.39173492 -326.05444336 331.21606445 C-325.19652695 331.06522903 -324.33861053 330.91439362 -323.45469666 330.75898743 C-321.125 330.4375 -321.125 330.4375 -317.125 330.4375 C-316.80982422 329.29087891 -316.80982422 329.29087891 -316.48828125 328.12109375 C-314.58236119 322.97128682 -311.95553985 318.30496627 -309.3125 313.5 C-308.74080078 312.45328125 -308.16910156 311.4065625 -307.58007812 310.328125 C-303.47615753 302.83790927 -299.31777982 295.37830197 -295.125 287.9375 C-294.59801514 287.00172119 -294.07103027 286.06594238 -293.52807617 285.10180664 C-284.69756603 269.52461181 -284.69756603 269.52461181 -281.125 266.4375 C-280.465 266.4375 -279.805 266.4375 -279.125 266.4375 C-278.97442139 265.87949707 -278.82384277 265.32149414 -278.66870117 264.74658203 C-276.4817404 257.03675013 -273.52513787 249.69887096 -270.4375 242.3125 C-270.16977783 241.66899597 -269.90205566 241.02549194 -269.6262207 240.36248779 C-265.82311747 231.23736244 -261.85758952 222.25941129 -257.21923828 213.52441406 C-255.94856098 211.10099827 -254.72262397 208.6569867 -253.49609375 206.2109375 C-240.01987565 179.54922317 -223.60890686 155.1219657 -204.54736328 132.1640625 C-203.30422023 130.65504986 -202.08550954 129.12597651 -200.87109375 127.59375 C-188.53883852 112.05557643 -174.23267016 97.28558819 -159.125 84.4375 C-158.16722656 83.59058594 -157.20945313 82.74367188 -156.22265625 81.87109375 C-141.82072235 69.19540425 -126.35807473 57.66529856 -110.125 47.4375 C-109.41537109 46.98874512 -108.70574219 46.53999023 -107.97460938 46.07763672 C-77.88028512 27.19428923 -46.03019276 12.95655291 -12.125 2.4375 C-11.45162598 2.22617432 -10.77825195 2.01484863 -10.08447266 1.79711914 C-6.69820428 0.77411733 -3.53895671 0.0967239 0 0 Z " fill="#010100" transform="translate(397.125,-0.4375)"/>
<path d="M0 0 C0.07516846 0.62342285 0.15033691 1.2468457 0.2277832 1.88916016 C1.99805367 16.58330238 1.99805367 16.58330238 4.375 31.1875 C4.56835938 32.23292969 4.76171875 33.27835938 4.9609375 34.35546875 C6.39523675 38.00592211 7.50907954 39.14848649 11 41 C20.86632755 42.48539055 31.89055371 40.08597856 41.75 39 C44.38565297 38.71203498 47.0214565 38.42584468 49.65777588 38.14404297 C51.28655968 37.96974084 52.91497072 37.79190458 54.54290771 37.60986328 C59.05971819 37.12418736 63.45697688 36.91573061 68 37 C63.98739545 45.28203789 59.62945936 53.27267799 54.9375 61.1875 C52.61754753 65.12068098 50.30584778 69.0585366 48 73 C47.49404297 73.85005615 46.98808594 74.7001123 46.46679688 75.57592773 C46.01240234 76.35782471 45.55800781 77.13972168 45.08984375 77.9453125 C44.69273193 78.61965332 44.29562012 79.29399414 43.88647461 79.98876953 C42.50744351 83.11751044 42.42307199 85.62435475 43.05712891 88.96264648 C46.70339493 96.84148904 61.31479076 101.67081875 68.88330078 105.77001953 C70.69559976 106.75351459 72.50417421 107.74359896 74.3125 108.734375 C75.38113281 109.31413086 76.44976562 109.89388672 77.55078125 110.49121094 C80 112 80 112 81 114 C78.79253723 114.56609719 76.58424973 115.12843847 74.375 115.6875 C73.30125122 115.95977417 73.30125122 115.95977417 72.20581055 116.23754883 C68.16954667 117.24843912 64.12948972 118.20093472 60.05859375 119.0625 C-21.41674663 136.40358741 -104.31042488 181.30036421 -156 248 C-157.56025217 249.81443536 -159.12291451 251.62679993 -160.6875 253.4375 C-174.64404148 270.20263342 -186.29918129 289.03036683 -197 308 C-201.82569912 308.21966198 -206.62738984 308.24236418 -211 306 C-213.33788437 303.67730139 -214.91724987 301.12737592 -216.5 298.25 C-216.8911499 297.54617188 -217.2822998 296.84234375 -217.68530273 296.1171875 C-220.23804926 290.92606014 -220.23804926 290.92606014 -219.25732422 287.11083984 C-217.0645583 281.68555376 -214.32783735 276.56042481 -211.625 271.375 C-211.31520203 270.77895966 -211.00540405 270.18291931 -210.68621826 269.56881714 C-202.67113981 254.17822963 -193.90254007 239.25892554 -184 225 C-183.56220215 224.36529785 -183.1244043 223.7305957 -182.67333984 223.07666016 C-176.16756366 213.66034721 -169.44362316 204.47460888 -162.25976562 195.56396484 C-161.07765949 194.09641215 -159.90565059 192.62074238 -158.734375 191.14453125 C-153.67865004 184.84306111 -148.30020383 178.90736145 -142.7890625 173.0078125 C-140.55491626 170.61226974 -138.3844446 168.1728122 -136.25 165.6875 C-130.9665245 159.59807061 -125.21410818 154.06857541 -119.09765625 148.82421875 C-117.66728816 147.5803046 -116.25899275 146.31065931 -114.87109375 145.01953125 C-108.87433842 139.44894127 -102.54075465 134.48934068 -95.97680664 129.60498047 C-89.0508141 124.66423951 -89.0508141 124.66423951 -84 118 C-83.46747942 114.00609564 -83.64610244 112.48258758 -86.0625 109.1875 C-89.63119466 106.52996143 -91.56582063 106.10656857 -96 106 C-98.58500527 107.36464231 -100.5042174 108.58827708 -102.75 110.375 C-103.35634277 110.83398682 -103.96268555 111.29297363 -104.58740234 111.76586914 C-106.40928157 113.15609945 -108.20641311 114.57353634 -110 116 C-111.45019531 117.13115234 -111.45019531 117.13115234 -112.9296875 118.28515625 C-118.94152951 123.08591705 -124.60919316 128.22827603 -130.2421875 133.4609375 C-132.39704597 135.44487236 -134.57543102 137.36156514 -136.8125 139.25 C-146.19114872 147.38735698 -155.04862732 156.46924507 -163 166 C-163.79148437 166.91394531 -164.58296875 167.82789063 -165.3984375 168.76953125 C-191.16463571 198.60308433 -212.84561096 232.05621359 -231 267 C-233.4913396 263.95678138 -235.27383639 260.71615306 -237.10961914 257.26171875 C-240.64600423 250.63563391 -243.66143104 245.31562142 -250 241 C-244.0637646 224.49546673 -237.05280709 208.58038352 -229.02099609 192.98876953 C-227.99841726 190.99691703 -226.99328012 188.99686239 -225.98828125 186.99609375 C-210.84054778 157.23349735 -190.39932828 129.3657775 -167.703125 104.921875 C-165.18786683 102.20306992 -162.71374701 99.45293031 -160.25 96.6875 C-154.85725776 90.69130703 -149.25731146 85.12674982 -143.14453125 79.8671875 C-140.84892571 77.86846355 -138.615204 75.81054771 -136.375 73.75 C-130.17447127 68.16479092 -123.63669923 63.05202514 -117 58 C-116.10039551 57.31502441 -116.10039551 57.31502441 -115.18261719 56.61621094 C-84.03854994 33.04455811 -49.11962393 14.24944659 -12.1875 1.5 C-11.42783936 1.2321167 -10.66817871 0.9642334 -9.88549805 0.68823242 C-6.14640998 -0.56010705 -3.76045046 -1.193035 0 0 Z " fill="#FDD88E" transform="translate(390,24)"/>
<path d="M0 0 C1.32 0 2.64 0 4 0 C4.46672119 0.88333008 4.93344238 1.76666016 5.41430664 2.67675781 C6.07958602 3.9355489 6.74486959 5.19433776 7.41015625 6.453125 C7.94867722 7.47239326 7.94867722 7.47239326 8.49807739 8.51225281 C10.50167319 12.3030342 12.50899888 16.09177595 14.52270508 19.87719727 C18.14440543 26.68935762 21.76292671 33.50047524 25.26374817 40.37576294 C26.58234619 42.96193801 27.91626136 45.54004095 29.25216675 48.11730957 C30.17075825 49.90491997 31.06717676 51.70386867 31.96313477 53.50292969 C32.52572998 54.58348633 33.0883252 55.66404297 33.66796875 56.77734375 C34.14516357 57.71827881 34.6223584 58.65921387 35.11401367 59.62866211 C39.34269533 64.94557925 46.49364779 65.71884052 52.84375 66.90234375 C54.10213432 67.14633156 54.10213432 67.14633156 55.38594055 67.39524841 C58.08920374 67.91709059 60.79449228 68.4274357 63.5 68.9375 C65.35646835 69.29389009 67.21283212 69.6508254 69.0690918 70.00830078 C79.87212172 72.07893937 90.68539619 74.08883655 101.55078125 75.80834961 C102.36546875 75.94120361 103.18015625 76.07405762 104.01953125 76.2109375 C104.70120361 76.31712402 105.38287598 76.42331055 106.08520508 76.53271484 C108.25714906 77.06275447 110.04043745 77.93621405 112 79 C110.52051187 84.0183818 107.57920204 86.79586643 103.92578125 90.33203125 C103.3237236 90.92747238 102.72166595 91.52291351 102.10136414 92.13639832 C100.17873729 94.03569197 98.24625905 95.92454748 96.3125 97.8125 C93.78397959 100.29435577 91.25978368 102.78054663 88.73828125 105.26953125 C88.13373108 105.86540039 87.52918091 106.46126953 86.90631104 107.07519531 C83.24657973 110.70228787 79.75603242 114.41251888 76.42553711 118.34741211 C73.69035149 121.51824127 70.65532614 124.38537402 67.65625 127.3046875 C64.29229405 130.6122643 63.05404029 131.84673105 62.828125 136.66796875 C62.91094026 143.59546565 63.8835575 150.44912491 64.75 157.3125 C64.92955611 158.76787971 65.1089154 160.22328371 65.28808594 161.67871094 C66.64057287 172.56645542 68.14977645 183.42885316 69.78027344 194.27856445 C69.94043945 195.35710693 70.10060547 196.43564941 70.265625 197.546875 C70.47880371 198.95211426 70.47880371 198.95211426 70.69628906 200.38574219 C70.99425696 202.95056555 71.05483086 205.42061642 71 208 C68.25497062 209.10437373 67.1577692 209.05915078 64.34057617 208.00292969 C63.33486572 207.48118164 62.32915527 206.95943359 61.29296875 206.421875 C60.15972168 205.84300537 59.02647461 205.26413574 57.85888672 204.66772461 C56.63508698 204.02849106 55.4112915 203.38924934 54.1875 202.75 C52.2943581 201.77805825 50.39894957 200.81064485 48.5032959 199.84361267 C47.21788671 199.18772853 45.93314075 198.53054303 44.64904785 197.87208557 C37.71220412 194.32091685 30.68065995 190.97570949 23.63745117 187.64160156 C22.77482666 187.23264648 21.91220215 186.82369141 21.0234375 186.40234375 C20.19295898 186.01159668 19.36248047 185.62084961 18.50683594 185.21826172 C16.76914171 184.37378429 15.04909928 183.492375 13.34472656 182.58251953 C12.48073242 182.12345215 11.61673828 181.66438477 10.7265625 181.19140625 C9.96166504 180.77189697 9.19676758 180.3523877 8.40869141 179.92016602 C4.31202186 178.35516018 1.18728244 178.55814375 -2.89892578 180.07885742 C-4.40688721 180.83453003 -4.40688721 180.83453003 -5.9453125 181.60546875 C-7.09185303 182.17096436 -8.23839355 182.73645996 -9.41967773 183.3190918 C-10.02351288 183.62358246 -10.62734802 183.92807312 -11.2494812 184.24179077 C-14.460985 185.86115539 -17.69115067 187.44268892 -20.91796875 189.03125 C-21.58137772 189.35933151 -22.24478668 189.68741302 -22.92829895 190.0254364 C-30.04131 193.53554654 -37.23299098 196.8703082 -44.4375 200.1875 C-46.72809534 201.24298894 -49.0184758 202.2989444 -51.30859375 203.35546875 C-52.74416626 204.01518677 -52.74416626 204.01518677 -54.20874023 204.68823242 C-56.21015643 205.62880875 -58.17322042 206.6526909 -60.10571289 207.7277832 C-63.25500142 209.11208877 -63.89090097 208.99046673 -67 208 C-66.02204918 200.43766044 -65.04337694 192.87541449 -64.06420898 185.31323242 C-63.73136142 182.74196475 -63.39867751 180.17067588 -63.06616211 177.59936523 C-62.58751004 173.89821852 -62.10826475 170.19714903 -61.62890625 166.49609375 C-61.48095108 165.35103867 -61.33299591 164.20598358 -61.18055725 163.02622986 C-60.02341602 154.09926609 -60.02341602 154.09926609 -59.41967773 149.921875 C-58.97028872 146.79314447 -58.65459965 143.72019795 -58.5 140.5625 C-58.39171875 138.98662109 -58.39171875 138.98662109 -58.28125 137.37890625 C-59.35829976 132.31560165 -62.45239721 129.62750375 -66 126 C-67.23003942 124.66867275 -68.45792618 123.33535322 -69.68359375 122 C-70.9331984 120.6650757 -72.18452948 119.33176558 -73.4375 118 C-74.09492187 117.29939453 -74.75234375 116.59878906 -75.4296875 115.87695312 C-79.32148526 111.74239966 -83.27447458 107.68740078 -87.32421875 103.70703125 C-89.67307933 101.31436908 -91.82026335 98.7642506 -93.99609375 96.21484375 C-97.38979908 92.46390628 -101.08301393 89.00530006 -104.7421875 85.515625 C-106.95583118 83.04921232 -107.39640678 82.09926639 -108 79 C-102.25195697 76.65639667 -96.85738463 75.25653582 -90.734375 74.31640625 C-89.86089417 74.17476547 -88.98741333 74.03312469 -88.08746338 73.88719177 C-85.30949525 73.43781821 -82.52995283 72.99941204 -79.75 72.5625 C-68.8002195 70.8225322 -57.85321707 69.05858776 -46.953125 67.02734375 C-45.7112442 66.81217857 -45.7112442 66.81217857 -44.4442749 66.59266663 C-39.66017994 65.67019936 -36.50766155 64.59954049 -33 61 C-31.48396606 58.82070174 -31.48396606 58.82070174 -30.34375 56.38671875 C-29.88516602 55.47986328 -29.42658203 54.57300781 -28.95410156 53.63867188 C-28.47424805 52.66478516 -27.99439453 51.69089844 -27.5 50.6875 C-23.27351687 42.34066013 -18.8946851 34.12192049 -14.25 26 C-9.34669667 17.40994227 -4.58320833 8.76486669 0 0 Z " fill="#FDC043" transform="translate(128,283)"/>
<path d="M0 0 C2.8100346 1.79363911 4.50940468 3.01880935 6 6 C6.12150428 10.49565838 5.80266747 13.9715823 3 17.5625 C-1.10346073 19.5287416 -4.5305611 19.79363868 -9 19 C-11.89115314 17.33758695 -12.69207311 16.08584747 -13.59375 12.90625 C-14.31784262 8.7287926 -14.42885043 6.7098214 -12.1875 3 C-8.4620862 -0.40609262 -4.91281441 -0.70586414 0 0 Z " fill="#050403" transform="translate(339,106)"/>
</svg>
