<?xml version="1.0" encoding="UTF-8"?>
<svg version="1.1" xmlns="http://www.w3.org/2000/svg" width="179" height="305">
<path d="M0 0 C30.03 0 60.06 0 91 0 C91 25.41 91 50.82 91 77 C78.31304281 82.07478288 78.31304281 82.07478288 70.65234375 82.28125 C68.78352539 82.33732422 68.78352539 82.33732422 66.87695312 82.39453125 C65.57693359 82.42933594 64.27691406 82.46414062 62.9375 82.5 C44.73269726 82.0911505 44.73269726 82.0911505 28 88 C24.54578453 92.45705222 24.20416447 97.9285243 23.4296875 103.390625 C23 106 23 106 22 108 C44.77 108 67.54 108 91 108 C91 117.24 91 126.48 91 136 C55.36 136 19.72 136 -17 136 C-9.99740757 77.64506312 -9.99740757 77.64506312 3.8828125 64.59765625 C15.01492557 56.19722407 27.55035681 54.06692473 41.125 53.82421875 C43.05085938 53.78844727 43.05085938 53.78844727 45.015625 53.75195312 C47.67171132 53.70898702 50.32801299 53.6777352 52.984375 53.65820312 C61.72906328 53.46943726 68.75910281 52.71078504 75.5 46.8125 C77.56375848 42.94295285 78.49379054 39.39632867 78 35 C75.83653764 32.19334613 74.15193199 30.575966 71 29 C69.12155092 28.88017743 67.23899169 28.82270839 65.35693359 28.79467773 C64.17586029 28.77473251 62.99478699 28.75478729 61.77792358 28.73423767 C59.85757797 28.70916893 59.85757797 28.70916893 57.8984375 28.68359375 C56.59170074 28.66281265 55.28496399 28.64203156 53.93862915 28.62062073 C50.463311 28.56540706 46.98793347 28.51599475 43.51251221 28.46777344 C39.966621 28.41755323 36.4208161 28.36186988 32.875 28.30664062 C25.9167415 28.19906772 18.95840504 28.09762083 12 28 C11.03862671 26.08721547 10.07839878 24.17385524 9.11865234 22.26025391 C8.31637711 20.66209335 8.31637711 20.66209335 7.49789429 19.03164673 C5.76120013 15.51668363 4.16342254 11.9809322 2.625 8.375 C1.87089844 6.62316406 1.87089844 6.62316406 1.1015625 4.8359375 C0 2 0 2 0 0 Z " fill="#FFFFFF" transform="translate(87,47)"/>
<path d="M0 0 C7.92 0 15.84 0 24 0 C22.875 11.25 22.875 11.25 21.96850586 15.26611328 C21.76837387 16.16629181 21.56824188 17.06647034 21.36204529 17.993927 C21.04168053 19.39298782 21.04168053 19.39298782 20.71484375 20.8203125 C20.49429825 21.80498505 20.27375275 22.78965759 20.04652405 23.8041687 C19.34903268 26.91238459 18.64341434 30.01868748 17.9375 33.125 C17.45974532 35.24727409 16.98252668 37.36966892 16.50585938 39.4921875 C15.343428 44.66287403 14.17371037 49.83186258 13 55 C7.39 55 1.78 55 -4 55 C-3.47197708 43.3834957 -2.81772421 31.78735023 -2 20.1875 C-1.9170166 18.9902832 -1.8340332 17.79306641 -1.74853516 16.55957031 C-1.66651855 15.4197168 -1.58450195 14.27986328 -1.5 13.10546875 C-1.39171875 11.59182739 -1.39171875 11.59182739 -1.28125 10.04760742 C-0.97098272 6.6855706 -0.47748419 3.3423893 0 0 Z " fill="#FFFFFF" transform="translate(52,43)"/>
</svg>
