<?xml version="1.0" encoding="UTF-8"?>
<svg version="1.1" xmlns="http://www.w3.org/2000/svg" width="303" height="301">
<path d="M0 0 C1.17113799 0.00138269 1.17113799 0.00138269 2.36593533 0.00279331 C3.70584782 0.00073132 3.70584782 0.00073132 5.07282925 -0.00137234 C6.06041225 0.00222294 7.04799526 0.00581821 8.06550503 0.00952244 C9.09952953 0.00937641 10.13355404 0.00923038 11.19891262 0.00907993 C14.63485175 0.00977956 18.07073742 0.01757425 21.50666714 0.02539158 C23.88178382 0.02725558 26.25690089 0.02867957 28.63201809 0.0296793 C34.89727233 0.03350586 41.16250356 0.04333732 47.42774868 0.05438328 C53.81537979 0.06459443 60.2030146 0.06917628 66.59065151 0.0742197 C79.13428115 0.08495947 91.6778948 0.10184656 104.22151089 0.12304783 C101.96835451 4.09781742 99.75856111 7.94689656 97.05744839 11.63867283 C96.49283901 12.41468845 95.92822964 13.19070408 95.34651089 13.99023533 C94.76901089 14.77656345 94.19151089 15.56289158 93.59651089 16.37304783 C92.43724695 17.96129049 91.2783761 19.54982015 90.11994839 21.13867283 C89.6112521 21.83251072 89.10255581 22.52634861 88.57844448 23.24121189 C87.42338582 24.84308166 86.31697668 26.47984914 85.22151089 28.12304783 C82.74113369 28.48381138 82.74113369 28.48381138 79.57844448 28.463624 C78.39737118 28.46339741 77.21629787 28.46317081 75.99943447 28.46293736 C74.07908886 28.43971157 74.07908886 28.43971157 72.11994839 28.41601658 C70.81321163 28.41177174 69.50647488 28.40752689 68.16014004 28.40315342 C64.68459303 28.39169415 61.20942161 28.36221832 57.73402309 28.32904148 C54.18823738 28.29836351 50.64239103 28.28465299 47.09651089 28.2695322 C40.13802318 28.23734918 33.17978506 28.18614012 26.22151089 28.12304783 C26.08873745 29.35281345 25.95596401 30.58257908 25.81916714 31.84961033 C25.64087046 33.48243252 25.46248009 35.11524448 25.28401089 36.74804783 C25.19699917 37.55629002 25.10998745 38.3645322 25.02033901 39.19726658 C24.54441552 43.53345841 23.993139 47.82695619 23.22151089 52.12304783 C24.46126675 52.10210056 25.70102261 52.0811533 26.97834682 52.05957127 C31.63008224 51.98652287 36.28176822 51.94101487 40.93391323 51.90332127 C42.93758103 51.88335223 44.94119167 51.8561672 46.94465542 51.82129002 C74.19940355 51.35911474 74.19940355 51.35911474 83.72151089 60.31054783 C91.21081938 67.60751453 93.32320892 75.69500996 93.53401089 85.93554783 C93.54981813 100.09356852 89.66836559 113.69078702 80.15510464 124.46289158 C71.30354842 132.96608601 61.34485118 136.28767358 49.32209682 136.23657322 C48.42418423 136.23671925 47.52627163 136.23686527 46.60114956 136.23701572 C43.63603701 136.23631958 40.67098745 136.22854112 37.70588589 136.22070408 C35.64894044 136.21883884 33.59199454 136.21741544 31.53504848 136.21641636 C26.12306903 136.21259953 20.71111645 136.20277634 15.29914761 136.19171238 C9.77587656 136.18148035 4.25260118 136.17691489 -1.27067661 136.17187595 C-12.10662591 136.16115334 -22.94255528 136.1440869 -33.77848911 136.12304783 C-29.76974626 130.08840907 -25.70812817 124.10320263 -21.52848911 118.18554783 C-20.99997349 117.4320908 -20.47145786 116.67863377 -19.92692661 115.9023447 C-19.41903599 115.1824033 -18.91114536 114.46246189 -18.38786411 113.72070408 C-17.93379185 113.0762534 -17.47971958 112.43180271 -17.01188755 111.76782322 C-15.77848911 110.12304783 -15.77848911 110.12304783 -13.77848911 108.12304783 C-11.35194492 107.87822056 -11.35194492 107.87822056 -8.26237583 107.88354588 C-6.52949818 107.87794903 -6.52949818 107.87794903 -4.76161289 107.87223911 C-3.50647892 107.87637318 -2.25134495 107.88050724 -0.95817661 107.88476658 C1.00973705 107.87329346 2.97765104 107.8617907 4.94555378 107.8485775 C9.80382694 107.81838532 14.6619864 107.8076568 19.52033901 107.81762791 C22.24200632 107.82236685 24.96303803 107.81382708 27.68461514 107.79121494 C30.24664613 107.77065941 32.80892839 107.76965815 35.37095547 107.79069614 C42.50621889 107.71055593 47.82721493 107.09635814 53.22151089 102.12304783 C56.2277022 97.80164781 56.78999919 94.33419064 56.22151089 89.12304783 C54.86270913 85.60614916 53.71431436 84.40905876 50.44978237 82.51440525 C44.77703505 80.2168847 38.65627986 80.64201791 32.63166714 80.61132908 C31.33200512 80.59337788 30.0323431 80.57542667 28.69329739 80.5569315 C25.25914905 80.50966066 21.82506535 80.47970411 18.39070034 80.45349216 C14.87779385 80.42356997 11.36510959 80.37708012 7.85237026 80.3320322 C0.97554426 80.24626063 -5.90135595 80.17879996 -12.77848911 80.12304783 C-12.19706493 70.19530219 -11.12809709 60.42029248 -9.74723911 50.57226658 C-9.54900263 49.13739402 -9.3510509 47.7024821 -9.15336704 46.2675333 C-8.74279398 43.29487927 -8.32900219 40.3226973 -7.91276646 37.35083103 C-7.37875278 33.53627119 -6.85282264 29.72064611 -6.32917118 25.90465164 C-5.92391315 22.95753811 -5.51462382 20.01099567 -5.1040659 17.0646162 C-4.90827426 15.65611597 -4.71371913 14.24744328 -4.52041721 12.83859921 C-4.25181214 10.88556595 -3.97722233 8.93335856 -3.70231724 6.98120213 C-3.54767002 5.87093159 -3.3930228 4.76066105 -3.23368931 3.61674595 C-2.60640494 0.18032861 -2.60640494 0.18032861 0 0 Z " fill="#FFFFFF" transform="translate(105.778489112854,44.876952171325684)"/>
</svg>
