<?xml version="1.0" encoding="UTF-8"?>
<svg version="1.1" xmlns="http://www.w3.org/2000/svg" width="327" height="299">
<path d="M0 0 C1.85144316 0.05018777 3.70301607 0.09581049 5.5546875 0.13671875 C10.08133423 0.24666542 14.60174684 0.41902308 19.125 0.625 C20.63726741 5.97760547 22.14887815 11.33039581 23.65991211 16.68334961 C24.17275773 18.49980534 24.68577474 20.31621269 25.19897461 22.13256836 C26.6401684 27.23358046 28.07795448 32.33552596 29.51031494 37.43902588 C30.05389398 39.37212918 30.6015891 41.30407403 31.14990234 43.23583984 C31.42398926 44.21375488 31.69807617 45.19166992 31.98046875 46.19921875 C32.20758545 47.00319092 32.43470215 47.80716309 32.66870117 48.63549805 C33.125 50.625 33.125 50.625 33.125 53.625 C28.79076811 55.79477825 24.44920164 57.94880985 20.10009766 60.08862305 C18.62173949 60.81871852 17.1454755 61.5530705 15.67138672 62.29174805 C13.55191848 63.35290942 11.42538601 64.39852632 9.296875 65.44140625 C8.31071198 65.94130821 8.31071198 65.94130821 7.30462646 66.4513092 C2.6757907 68.69272287 2.6757907 68.69272287 -0.32324219 68.32397461 C-0.83532227 68.09331299 -1.34740234 67.86265137 -1.875 67.625 C-2.02122803 67.05467041 -2.16745605 66.48434082 -2.31811523 65.89672852 C-2.97934115 63.32605211 -3.64584771 60.75677426 -4.3125 58.1875 C-4.54259766 57.28966797 -4.77269531 56.39183594 -5.00976562 55.46679688 C-5.34331055 54.18579102 -5.34331055 54.18579102 -5.68359375 52.87890625 C-5.88782959 52.08814697 -6.09206543 51.2973877 -6.30249023 50.48266602 C-6.71532953 48.6288412 -6.71532953 48.6288412 -7.875 47.625 C-8.28226318 48.33406494 -8.68952637 49.04312988 -9.10913086 49.77368164 C-16.58988221 62.79033673 -24.08500483 75.78995551 -31.875 88.625 C-15.67776316 81.09954639 0.28117671 73.10761707 16.24334717 65.10015869 C19.73634135 63.34845833 23.23053259 61.59914901 26.72460938 59.84960938 C33.52588151 56.44368194 40.32587123 53.03520453 47.125 49.625 C47.455 50.615 47.785 51.605 48.125 52.625 C46.67578125 54.76171875 46.67578125 54.76171875 44.4375 57.3125 C40.59776931 61.82773886 36.96460606 66.42452973 33.4375 71.1875 C28.90355472 77.28495109 24.29455471 83.31822289 19.625 89.3125 C19.03759033 90.06668213 18.45018066 90.82086426 17.8449707 91.59790039 C16.27496145 93.60960952 14.70414413 95.62045276 13.125 97.625 C12.55840164 98.41447021 11.99180328 99.20394043 11.40803528 100.01733398 C8.83532321 102.95586669 6.46690797 104.43917812 3.04760742 106.3137207 C2.44573483 106.64597593 1.84386223 106.97823116 1.22375107 107.32055473 C-0.76656528 108.41171497 -2.76641474 109.483316 -4.76953125 110.55078125 C-5.46233122 110.92200922 -6.15513119 111.29323719 -6.86892509 111.67571449 C-12.11642972 114.47933374 -17.39554204 117.21889504 -22.6875 119.9375 C-23.45620926 120.33437767 -24.22491852 120.73125534 -25.016922 121.14015961 C-49.12111105 133.55000022 -70.30552639 142.57272908 -97.875 136.625 C-96.58391809 133.23497279 -95.11718459 130.10339169 -93.328125 126.94921875 C-92.82031494 126.05146729 -92.31250488 125.15371582 -91.78930664 124.22875977 C-91.24008545 123.26639404 -90.69086426 122.30402832 -90.125 121.3125 C-89.54935303 120.29921631 -88.97370605 119.28593262 -88.38061523 118.24194336 C-82.54361726 107.99347185 -76.59910338 97.80819313 -70.63671875 87.63232422 C-67.73226309 82.67430249 -64.83409225 77.71261895 -61.9375 72.75 C-61.36265869 71.76523682 -60.78781738 70.78047363 -60.19555664 69.76586914 C-55.89933367 62.39860912 -51.63242835 55.0147342 -47.375 47.625 C-42.37464131 38.9463363 -37.35732501 30.27790114 -32.3125 21.625 C-31.75304687 20.66464844 -31.19359375 19.70429687 -30.6171875 18.71484375 C-29.55261976 16.89096986 -28.46846209 15.07836292 -27.36328125 13.27880859 C-25.79647937 10.65683311 -25.79647937 10.65683311 -24.83984375 7.74072266 C-20.47812292 -2.97616174 -9.82621261 -0.46071237 0 0 Z " fill="#FFFFFF" transform="translate(170.875,42.375)"/>
<path d="M0 0 C2 1 2 1 2.88589478 3.46728516 C3.18345673 4.56347168 3.48101868 5.6596582 3.78759766 6.7890625 C4.29790024 8.6460376 4.29790024 8.6460376 4.81851196 10.54052734 C5.18390347 11.90196242 5.54908189 13.26345471 5.9140625 14.625 C6.29168529 16.0114112 6.66997959 17.39763967 7.04891968 18.78369141 C8.04576049 22.43761292 9.03270986 26.09413897 10.0178833 29.7512207 C10.82519826 32.74154063 11.63942725 35.72995623 12.45405006 38.71829224 C13.42212833 42.26991996 14.38735378 45.82232 15.3515625 49.375 C15.53677082 50.05733704 15.72197914 50.73967407 15.91279984 51.44268799 C16.43378461 53.36502628 16.9525456 55.28796684 17.47119141 57.2109375 C17.76716217 58.30712402 18.06313293 59.40331055 18.36807251 60.53271484 C19 63 19 63 19 64 C6.13 64 -6.74 64 -20 64 C-28.86793534 40.66332804 -28.86793534 40.66332804 -27.37841797 34.37646484 C-25.04717018 29.76523863 -21.53962175 26.27981368 -17.80566406 22.76757812 C-14.89227634 19.91564098 -12.51791113 16.68182604 -10.0625 13.4375 C-9.20109846 12.35137114 -8.33789022 11.26667208 -7.47265625 10.18359375 C-4.86288867 6.87107613 -2.42945626 3.44643795 0 0 Z " fill="#FFFFFF" transform="translate(208,115)"/>
</svg>
