<?xml version="1.0" encoding="UTF-8"?>
<svg version="1.1" xmlns="http://www.w3.org/2000/svg" width="281" height="301">
<path d="M0 0 C1.9348339 0.00747309 3.86967544 0.01316097 5.80451965 0.01715088 C10.86314293 0.03232318 15.92129677 0.07153131 20.97973633 0.1159668 C26.15504611 0.1571021 31.33043275 0.17520067 36.50585938 0.1953125 C46.63562136 0.23803471 56.76503706 0.30618263 66.89453125 0.390625 C64.64137488 4.3653946 62.43158148 8.21447373 59.73046875 11.90625 C59.16585937 12.68226562 58.60125 13.45828125 58.01953125 14.2578125 C57.44203125 15.04414062 56.86453125 15.83046875 56.26953125 16.640625 C55.11026732 18.22886766 53.95139646 19.81739732 52.79296875 21.40625 C52.28427246 22.10008789 51.77557617 22.79392578 51.25146484 23.50878906 C50.09640618 25.11065883 48.98999705 26.74742631 47.89453125 28.390625 C45.83416748 28.76916504 45.83416748 28.76916504 43.26464844 28.77539062 C42.3031488 28.78550171 41.34164917 28.79561279 40.35101318 28.80603027 C39.3083429 28.80300903 38.26567261 28.79998779 37.19140625 28.796875 C36.12085999 28.80771118 35.05031372 28.81854736 33.94732666 28.82971191 C30.51300059 28.86408955 27.07900703 28.87958476 23.64453125 28.890625 C19.13900291 28.9051978 14.63421724 28.93893421 10.12890625 28.984375 C8.5770462 28.97984314 8.5770462 28.97984314 6.99383545 28.97521973 C0.65002412 29.04106745 -3.87498682 29.67392342 -8.8984375 33.8984375 C-9.35863281 34.43210938 -9.81882813 34.96578125 -10.29296875 35.515625 C-10.76089844 36.03382812 -11.22882813 36.55203125 -11.7109375 37.0859375 C-16.54165009 45.0694681 -17.24652318 54.61525545 -18.46801758 63.68139648 C-18.79014087 66.05726755 -19.13140521 68.42982816 -19.47460938 70.80273438 C-22.63315835 88.19898433 -22.63315835 88.19898433 -18.10546875 104.390625 C-12.79017415 108.41493515 -7.08648742 107.62038806 -0.75 107.375 C1.50450157 107.33879407 3.75906632 107.30636145 6.01367188 107.27734375 C9.54710022 107.21997733 13.07372254 107.14096474 16.60473633 106.99658203 C35.7505009 106.26469185 35.7505009 106.26469185 41.01046753 109.82138062 C44.4652856 113.25090728 46.76500862 117.15077527 48.90000916 121.49382019 C50.47357379 124.49500537 52.50219321 127.03197626 54.58203125 129.703125 C57.89453125 134.14413201 57.89453125 134.14413201 57.89453125 136.390625 C45.40280246 136.48345766 32.91115624 136.55445752 20.41915226 136.59787369 C14.61809636 136.61871521 8.81727713 136.64697044 3.01635742 136.69238281 C-2.58575823 136.73596255 -8.18764676 136.75978793 -13.7899189 136.77013397 C-15.92328019 136.77750355 -18.05662957 136.79189454 -20.18989372 136.81354523 C-23.18667986 136.84274004 -26.18253705 136.84657424 -29.17944336 136.84472656 C-30.05410751 136.85910767 -30.92877167 136.87348877 -31.8299408 136.88830566 C-40.74820049 136.82911943 -47.95068312 133.4742424 -54.375 127.33203125 C-61.2913579 119.57259587 -60.69163011 110.39874356 -60.31005859 100.54370117 C-59.59471726 89.51907909 -57.7847227 78.56182932 -56.16656494 67.63934326 C-55.75064155 64.80001532 -55.35249432 61.95830938 -54.95435715 59.11644173 C-54.56239671 56.33367914 -54.1600396 53.55249373 -53.75461578 50.77166367 C-53.47483656 48.84234651 -53.20269953 46.91192588 -52.93084717 44.98147583 C-50.74420437 30.40667279 -47.50263191 17.35008119 -35.85546875 7.515625 C-24.46278839 -0.37056478 -13.3337858 -0.15214059 0 0 Z " fill="#FFFFFF" transform="translate(135.10546875,44.609375)"/>
</svg>
