<?xml version="1.0" encoding="UTF-8"?>
<svg version="1.1" xmlns="http://www.w3.org/2000/svg" width="248" height="299">
<path d="M0 0 C35.97 0 71.94 0 109 0 C107.68 9.24 106.36 18.48 105 28 C69.36 28.495 69.36 28.495 33 29 C32.01 36.26 31.02 43.52 30 51 C29.67 51.99 29.34 52.98 29 54 C50.78 54 72.56 54 95 54 C95 54.66 95 55.32 95 56 C93.38623047 57.42944336 93.38623047 57.42944336 91.1171875 59.08984375 C90.27800781 59.71052734 89.43882812 60.33121094 88.57421875 60.97070312 C87.68347656 61.61974609 86.79273438 62.26878906 85.875 62.9375 C84.16266216 64.19470952 82.45175852 65.45387445 80.7421875 66.71484375 C79.36329346 67.70786499 79.36329346 67.70786499 77.95654297 68.72094727 C75.77700559 70.40104482 73.84415654 72.05082568 71.85986328 73.93334961 C63.8524869 81.30131887 57.84110118 83.34536908 46.97265625 82.96679688 C45.35669931 82.87494765 43.74081379 82.78183401 42.125 82.6875 C40.45459135 82.63216589 38.78400307 82.5820037 37.11328125 82.53710938 C33.07097785 82.41744417 29.03754467 82.22864284 25 82 C24.86722656 83.29035156 24.73445313 84.58070312 24.59765625 85.91015625 C24.41934123 87.62761148 24.24095187 89.34505899 24.0625 91.0625 C23.93198242 92.33383789 23.93198242 92.33383789 23.79882812 93.63085938 C23.71181641 94.46552734 23.62480469 95.30019531 23.53515625 96.16015625 C23.456604 96.91949463 23.37805176 97.67883301 23.29711914 98.46118164 C22.9241292 101.64829947 22.45380263 104.82338156 22 108 C46.09 108 70.18 108 95 108 C94.28006899 117.35910308 93.24058805 126.69558963 92 136 C55.37 136 18.74 136 -19 136 C-12.73 91.12 -6.46 46.24 0 0 Z " fill="#FFFFFF" transform="translate(92,43)"/>
</svg>
