<?xml version="1.0" encoding="UTF-8"?>
<svg version="1.1" xmlns="http://www.w3.org/2000/svg" width="290" height="299">
<path d="M0 0 C22.89375 -0.12375 22.89375 -0.12375 46.25 -0.25 C51.04821289 -0.28641602 55.84642578 -0.32283203 60.79003906 -0.36035156 C66.70263672 -0.37841797 66.70263672 -0.37841797 69.480896 -0.3817749 C71.39873988 -0.38786997 73.31656957 -0.40183905 75.23431396 -0.42230225 C102.10516297 -0.69439964 102.10516297 -0.69439964 111.5 8.25 C119.52426929 16.13281583 121.93023498 25.03931442 122.3125 36.125 C121.87175181 52.61826104 116.9520217 69.06956844 105.18359375 81.11328125 C87.06541029 96.76816965 66.84166183 97.31829801 44.1875 97.125 C42.12695749 97.11494778 40.06641021 97.10582591 38.00585938 97.09765625 C33.00378682 97.07582581 28.00194713 97.04142003 23 97 C22.87939209 97.97271851 22.87939209 97.97271851 22.75634766 98.96508789 C22.37992925 101.99764562 22.00246555 105.03007244 21.625 108.0625 C21.49867187 109.08150391 21.37234375 110.10050781 21.2421875 111.15039062 C20.20909373 119.44096811 19.10430841 127.71768695 18 136 C5.79 136 -6.42 136 -19 136 C-12.73 91.12 -6.46 46.24 0 0 Z M32 29 C31.554668 31.52576359 31.16384278 34.03928315 30.80859375 36.578125 C30.69902847 37.34171326 30.5894632 38.10530151 30.47657776 38.89202881 C30.2451208 40.51252717 30.01576678 42.13332704 29.78833008 43.75439453 C29.44081156 46.22644346 29.08518143 48.69722499 28.72851562 51.16796875 C28.50471791 52.74211785 28.28139544 54.31633461 28.05859375 55.890625 C27.95236191 56.62726379 27.84613007 57.36390259 27.73667908 58.12286377 C27.22901516 61.77601743 26.87753206 65.31059691 27 69 C32.26528574 69.0497158 37.53043254 69.08586827 42.79589844 69.10986328 C44.58433413 69.11987439 46.37275366 69.13348733 48.16113281 69.15087891 C50.74287934 69.17534362 53.32440804 69.18653221 55.90625 69.1953125 C56.69616333 69.20563507 57.48607666 69.21595764 58.29992676 69.22659302 C66.5218345 69.22822686 73.14476001 67.93553519 79.234375 62.09765625 C84.93187549 55.32872315 85.6473817 47.77189491 85.39453125 39.15625 C84.86286089 34.9028871 83.96651729 33.05127492 81 30 C77.8519186 27.90127906 77.13077319 27.75060885 73.54443359 27.75708008 C72.64695404 27.75400345 71.74947449 27.75092682 70.82479858 27.74775696 C69.37624985 27.75853523 69.37624985 27.75853523 67.8984375 27.76953125 C66.90623199 27.76998947 65.91402649 27.77044769 64.89175415 27.7709198 C62.79533695 27.77394063 60.69892196 27.78182189 58.60253906 27.79418945 C55.38077922 27.81246721 52.15930632 27.81469899 48.9375 27.81445312 C46.90364333 27.81936747 44.86978862 27.82519542 42.8359375 27.83203125 C41.38131607 27.83370049 41.38131607 27.83370049 39.89730835 27.83540344 C39.00613312 27.84178329 38.11495789 27.84816315 37.19677734 27.85473633 C36.4086264 27.85854813 35.62047546 27.86235992 34.80844116 27.86628723 C32.97864799 27.80367134 32.97864799 27.80367134 32 29 Z " fill="#FFFFFF" transform="translate(102,43)"/>
</svg>
