<?xml version="1.0" encoding="UTF-8"?>
<svg version="1.1" xmlns="http://www.w3.org/2000/svg" width="294" height="299">
<path d="M0 0 C2.15760104 0.011209 4.3152175 0.01974112 6.47283936 0.02572632 C12.11528672 0.0484903 17.75678784 0.10730558 23.39886475 0.1739502 C29.17072759 0.23564215 34.94274531 0.26279857 40.71484375 0.29296875 C52.01343356 0.35706151 63.31132519 0.45928891 74.609375 0.5859375 C73.29208086 3.26372853 71.91226987 5.73646465 70.21875 8.1953125 C69.52458984 9.20464844 69.52458984 9.20464844 68.81640625 10.234375 C68.33558594 10.92789063 67.85476562 11.62140625 67.359375 12.3359375 C66.89402344 13.01398437 66.42867187 13.69203125 65.94921875 14.390625 C64.51628285 16.46700044 63.07972947 18.53574931 61.609375 20.5859375 C61.26221436 21.24881271 60.91505371 21.91168793 60.55737305 22.59465027 C58.45012388 26.14984208 56.94150972 28.24155331 52.83538818 29.30307007 C49.30964753 29.56003241 45.86234157 29.56258211 42.328125 29.48046875 C40.36190457 29.486216 38.39568408 29.49197712 36.42946625 29.49855328 C33.68488946 29.49786765 30.94125338 29.4607993 28.19696045 29.4239502 C23.39486104 29.36526302 18.59257237 29.35549409 13.79016113 29.35856628 C11.23694289 29.35653818 8.68366622 29.33727189 6.1307373 29.29878235 C-1.64523076 29.2584272 -6.39536542 29.72380057 -12.203125 35.2734375 C-14.99834564 39.50620018 -15.55143755 41.52034214 -15.390625 46.5859375 C-12.32220191 50.86313332 -9.39277167 52.31044556 -4.390625 53.5859375 C-0.62345743 53.9202152 3.14195967 53.99971383 6.921875 54.0859375 C46.43246764 55.40903014 46.43246764 55.40903014 60.421875 69.3984375 C66.74371866 78.61026684 66.72245465 88.96134191 65.140625 99.796875 C62.27403453 112.79891035 55.81857703 125.08266365 44.484375 132.5234375 C37.92434155 136.45101118 31.83681461 136.86936501 24.38134766 136.81298828 C23.36610016 136.81328033 22.35085266 136.81357239 21.30484009 136.81387329 C17.96095122 136.8124839 14.61728728 136.79694089 11.2734375 136.78125 C8.95030845 136.77751849 6.62717782 136.77467217 4.30404663 136.77267456 C-1.80170051 136.76504902 -7.90735207 136.7454097 -14.01306152 136.7232666 C-20.24697578 136.70278499 -26.48090552 136.69366788 -32.71484375 136.68359375 C-44.9401461 136.66216287 -57.16537759 136.62803986 -69.390625 136.5859375 C-68.4273224 135.13892806 -67.46374929 133.6920987 -66.50006104 132.24534607 C-65.9635001 131.43962379 -65.42693916 130.6339015 -64.8741188 129.80376339 C-62.35766992 126.0416678 -59.75163557 122.34518237 -57.140625 118.6484375 C-56.61210938 117.89498047 -56.08359375 117.14152344 -55.5390625 116.36523438 C-55.03117187 115.64529297 -54.52328125 114.92535156 -54 114.18359375 C-53.54592773 113.53914307 -53.09185547 112.89469238 -52.62402344 112.23071289 C-51.390625 110.5859375 -51.390625 110.5859375 -49.390625 108.5859375 C-46.52629089 108.3343811 -46.52629089 108.3343811 -42.81713867 108.33056641 C-42.14212814 108.32694595 -41.46711761 108.3233255 -40.77165222 108.31959534 C-39.30387411 108.31269522 -37.83607031 108.31019705 -36.3682766 108.31154251 C-34.0436247 108.31250621 -31.71943722 108.29958386 -29.39485168 108.28256226 C-22.78499994 108.2362474 -16.17519388 108.21169055 -9.56518555 108.20507812 C-5.52320009 108.20005923 -1.48169675 108.17578734 2.56012535 108.13975143 C4.09943431 108.12995878 5.63880967 108.12761862 7.17814064 108.13292313 C9.33518445 108.14000562 11.49079649 108.12268902 13.64770508 108.10009766 C14.87411209 108.09724762 16.1005191 108.09439758 17.36408997 108.09146118 C21.24305411 107.48722821 22.85718025 106.33892273 25.609375 103.5859375 C27.96336889 99.20263853 29.38480657 95.57085473 28.609375 90.5859375 C25.89255223 86.8241829 23.05487667 85.63669244 18.609375 84.5859375 C12.41981194 83.77219506 6.22975149 83.51665219 -0.0078125 83.41015625 C-1.01276009 83.39218742 -1.01276009 83.39218742 -2.03800964 83.37385559 C-4.80611676 83.32551969 -7.57378997 83.27791092 -10.34228516 83.26000977 C-22.14670843 83.16942092 -34.32181155 82.19118593 -43.7421875 74.28125 C-51.44036521 66.36416676 -52.7514168 57.37077329 -52.69116211 46.72167969 C-52.31496585 32.17992294 -46.71195284 19.91327245 -37.3203125 8.9375 C-25.46277755 -0.58014806 -14.59423631 -0.22388146 0 0 Z " fill="#FFFFFF" transform="translate(145.390625,42.4140625)"/>
</svg>
