<?xml version="1.0" encoding="UTF-8"?>
<svg version="1.1" xmlns="http://www.w3.org/2000/svg" width="281" height="301">
<path d="M0 0 C41.91 0 83.82 0 127 0 C125.48451504 3.03096993 123.99801325 5.60030532 122.1015625 8.37109375 C121.53953125 9.19287109 120.9775 10.01464844 120.3984375 10.86132812 C119.81320313 11.71146484 119.22796875 12.56160156 118.625 13.4375 C117.75875 14.7069043 117.75875 14.7069043 116.875 16.00195312 C114.03420036 20.14316447 111.14586656 24.0676668 108 28 C98.1 28.33 88.2 28.66 78 29 C73.05 64.31 68.1 99.62 63 136 C50.79 136 38.58 136 26 136 C30.95 100.36 35.9 64.72 41 28 C33.74 28 26.48 28 19 28 C14.75523593 24.78521545 13.67268957 23.9113061 11.5 19.5625 C11.02949219 18.77939453 10.55898437 17.99628906 10.07421875 17.18945312 C9.13681987 15.62066574 8.23094157 14.03256409 7.359375 12.42626953 C5.47279118 9.05901558 3.30522958 5.9083174 1.11914062 2.73022461 C0 1 0 1 0 0 Z " fill="#FFFFFF" transform="translate(83,45)"/>
</svg>
